<?xml version="1.0" encoding="utf-8"?>
<!-- Designed by Vexels.com - 2020 All Rights Reserved - https://vexels.com/terms-and-conditions/  -->
<svg version="1.1" id="Layer_1" xmlns="http://www.w3.org/2000/svg" xmlns:xlink="http://www.w3.org/1999/xlink" x="0px" y="0px"
	 viewBox="0 0 1200 1200" enable-background="new 0 0 1200 1200" xml:space="preserve">
<g>
	<g>
		<g>
			<path fill="#1D5B78" d="M471.651,390.541c2.373,0.863,43.016-11.363,36.193-22.582c-6.823-11.219-23.288-4.747-23.288-4.747
				s-11.125,9.493-11.422,10.644S471.651,390.541,471.651,390.541z"/>
		</g>
	</g>
	<g>
		<g>
			<path fill="#F25B3A" d="M312.013,187.416c-9.647-5.068-22.176-4.661-31.295,1.256s-14.301,17.174-12.475,27.665
				c1.825,10.491,10.705,19.561,21.472,21.608c-6.226,5.08-8.58,14.023-6.038,21.518c0.817,2.411,2.112,4.706,3.998,6.465
				c6.265,5.843,16.391,4.127,24.807,2.02c-1.995,1.971-2.136,5.237-0.904,7.727c1.231,2.49,3.581,4.301,6.076,5.633
				c6.685,3.57,14.562,4.207,22.172,4.769c10.545,0.779,21.803,1.415,31.018-3.618c4.731-2.584,8.548-6.489,13.083-9.385
				c8.924-5.698,20.491-7.425,27.987-14.809c3.413-3.362,5.684-7.641,7.702-11.935c3.92-8.342,7.13-17.646,4.908-26.556
				c-1.611-6.46-5.896-11.936-10.075-17.203c-2.559-3.226-5.14-6.474-8.301-9.151c-8.141-6.895-19.482-9.361-30.28-8.904
				c-11.339,0.48-21.934,4.665-33.238,5.171c-4.501,0.201-8.823,0.524-13.178,1.795c-3.882,1.132-5.283,2.603-8.988,1.177
				C317.485,191.515,314.851,188.907,312.013,187.416z"/>
		</g>
	</g>
	<g>
		<g>
			<path fill="#2D3540" d="M430.638,240.663c-1.112-2.589-9.234-2.805-17.8-1.726c-8.566,1.079-30.593,3.991-30.593,3.991
				s24.697,15.966,25.253,15.966s22.917-10.141,22.917-11.435C430.415,246.164,430.638,240.663,430.638,240.663z"/>
		</g>
	</g>
	<g>
		<g>
			<path fill="#F25B3A" d="M422.636,112.721c10.426,4.479,18.351,15.663,18.445,27.531c0.041,5.225-1.327,10.324-2.96,15.228
				c-1.969,5.913-4.989,12.311-10.667,14.079c-3.115,0.97-6.549,0.308-9.514-1.173s-5.534-3.727-7.989-6.039
				c-4.494-4.233-8.737-8.78-12.513-13.737c-5.758-7.557-10.537-16.495-10.915-26.137c-0.055-1.4-0.003-2.859,0.605-4.092
				c0.986-1.998,4.976-2.795,6.872-3.827c2.919-1.59,6.049-2.76,9.272-3.471C409.673,109.671,416.499,110.084,422.636,112.721z"/>
		</g>
	</g>
	<g>
		<g>
			<path fill="#F3A771" d="M488.768,336.458c1.281,1.345,43.164,96.658,52.509,106.583s91.891,111.546,93.671,115.645
				c1.78,4.099-0.89,6.688-7.787,3.452c-6.897-3.236-82.769-63.001-101.458-91.912s-59.629-84.576-64.969-101.405
				C455.393,351.993,478.088,325.239,488.768,336.458z"/>
		</g>
	</g>
	<g>
		<g>
			<path fill="#F3A771" d="M416.962,228.443c0,0,2.151,27.459-3.459,37.328c-5.61,9.869-28.334-0.898-28.191-3.16
				s1.53-37.646,1.53-37.646L416.962,228.443z"/>
		</g>
	</g>
	<g>
		<g>
			<path fill="#2D3540" d="M405.174,238.292c4.136,0.048,8.444-0.138,12.155-1.586c-0.1-4.848-0.367-8.263-0.367-8.263
				l-29.303-3.384c-0.292,0.17-0.571,0.348-0.842,0.533c-0.046,1.185-0.156,3.994-0.299,7.591c2.053,1.546,4.92,2.733,6.671,3.395
				C396.94,237.997,401.107,238.245,405.174,238.292z"/>
		</g>
	</g>
	<g>
		<g>
			<path fill="#F3A771" d="M542.999,635.208c0,0,47.169,133.193,55.179,169.44c8.01,36.247,69.774,305.941,66.807,315.434
				c-2.967,9.493-5.933,2.877-8.603-0.575c-2.67-3.452-86.625-182.961-94.635-220.071c-8.01-37.11-3.173-66.74-8.068-78.391
				c-4.895-11.651-86.329-150.453-87.664-156.495S542.999,635.208,542.999,635.208z"/>
		</g>
	</g>
	<g>
		<path fill="#171B20" d="M555.389,670.689c-14.979-2.995-31.519-0.244-46.873,2.785c-8.69,1.715-17.605,3.552-25.03,8.258
			c-2.424,1.536-4.379,3.023-5.982,4.466c3.79,6.77,8.304,14.737,13.221,23.372c5.341,1.302,10.999,1.897,15.765,1.685
			c20.031-0.893,39.582-8.031,56.516-18.395C560.322,684.996,557.747,677.511,555.389,670.689z"/>
	</g>
	<g>
		<g>
			<path fill="#F3A771" d="M438.574,655.632c0,0,21.36,136.214,20.766,177.063c-0.593,40.85-123.872,230.067-127.432,254.807
				c-3.56,24.74-6.007,13.88-8.974,13.88s-5.488-0.935-2.373-17.764c3.115-16.829,32.871-141.464,50.671-174.834
				s34.709-56.959,32.929-78.247c-1.78-21.288-50.124-132.833-54.277-146.642C345.731,670.088,438.574,655.632,438.574,655.632z"/>
		</g>
	</g>
	<g>
		<defs>
			<path id="SVGID_1_" d="M438.574,655.632c0,0,21.36,136.214,20.766,177.063c-0.593,40.85-123.872,230.067-127.432,254.807
				c-3.56,24.74-6.007,13.88-8.974,13.88s-5.488-0.935-2.373-17.764c3.115-16.829,32.871-141.464,50.671-174.834
				s34.709-56.959,32.929-78.247c-1.78-21.288-50.124-132.833-54.277-146.642C345.731,670.088,438.574,655.632,438.574,655.632z"/>
		</defs>
		<clipPath id="SVGID_2_">
			<use xlink:href="#SVGID_1_"  overflow="visible"/>
		</clipPath>
		<g clip-path="url(#SVGID_2_)">
			<g>
				<path fill="#171B20" d="M432.447,701.566c9.887-2.897,21.278-8.64,21.608-18.651c0.286-8.685-8.33-15.201-16.786-18.078
					c-16.803-5.717-35.342-3.154-52.673,0.813c-7.027,1.608-26.721,17.512-32.817,21.264c-15.434,9.499-4.374,17.463,14.436,22.989
					C385.14,715.464,414.311,706.881,432.447,701.566z"/>
			</g>
		</g>
	</g>
	<g>
		<g>
			<path fill="#F3A771" d="M429.806,143.47c3.323,7.646,0.082,16.985,4.91,24.224c5.369,8.05,9.396,14.619,9.423,24.644
				c0.051,18.819-20.608,41.827-38.074,41.871c-33.275,0.084-46.02-16.452-46.02-16.452l-27.25-30.041l3.739-52.702l17.415-18.863
				c0.74,0.016,1.481,0.031,2.221,0.047c11.31,0.239,22.62,0.478,33.93,0.717c3.246,0.069,6.586-0.209,9.809-0.043
				c2.528,0.13,5.47,0.246,7.746,1.443c2.538,1.335,2.273,4.224,4.532,5.967c0.776,0.599,1.704,0.973,2.598,1.388
				C422.9,129.434,426.504,135.873,429.806,143.47z"/>
		</g>
	</g>
	<g>
		<g>
			<path fill="#F25B3A" d="M396.355,105.623c2.607,1.038,5.131,2.269,7.542,3.659c6.115,3.528,12.007,9.881,11.775,17.268
				c-0.127,4.047-1.781,7.903-3.727,11.486c-6.489,11.949-16.408,21.885-27.396,30.181c-10.989,8.297-23.092,15.076-35.079,21.951
				c-0.449,0.257-0.92,0.537-1.161,0.985c-0.215,0.398-0.215,0.87-0.194,1.319c0.127,2.755,0.917,5.701,0.333,8.445
				c-0.214,1.007-1.778,5.045-3.614,4.507c0.122,0.036,17.002,4.991-2.064,5.039c-10.598,0.027-19.592-6.902-25.502-14.899
				c-17.571-23.776-8.763-56.896,12.254-75.911c6.231-5.637,13.914-9.599,21.99-12.127c3.759-1.177,7.198-3.03,11.039-3.858
				c4.961-1.069,10.032-1.759,15.12-1.764C384.088,101.9,390.435,103.265,396.355,105.623z"/>
		</g>
	</g>
	<g>
		<g>
			<path fill="#F3A771" d="M370.764,209.112c0,0-6.164,11.832-20.105,11.867c-13.941,0.035-22.033-13.763-22.148-18.069
				c-0.115-4.306,5.743-14.935,14.417-14.957c8.674-0.022,19.849,8.161,19.849,8.161L370.764,209.112z"/>
		</g>
	</g>
	<g>
		<g>
			<path fill="#151514" d="M743.081,1103.469c0,4.747-33.597,36.175-66.823,36.175c-8.9,0-14.536-0.719-18.096-6.617
				s-2.373-11.507-2.373-11.507s7.12,1.295,10.977-4.027c0,0,1.78,4.171,10.531,3.74c8.752-0.432,33.597-21.072,43.535-23.23
				C730.77,1095.845,743.081,1097.14,743.081,1103.469z"/>
		</g>
	</g>
	<g>
		<g>
			<path fill="#42210B" d="M414.115,210.53c-5.212,0-12.936-1.351-17.015-8.56c-0.258-0.456-0.085-1.027,0.385-1.277
				c0.462-0.248,1.058-0.086,1.317,0.373c5.595,9.889,19.228,7.346,20.494,7.072c0.237-0.149,0.536-0.191,0.83-0.097
				c0.411,0.134,0.692,0.527,0.671,0.948c-0.04,0.766-0.794,0.934-1.346,1.057C419.393,210.058,417.19,210.53,414.115,210.53z"/>
		</g>
	</g>
	<g>
		<g>
			<path fill="#42210B" d="M395.322,203.786c-0.404,0-0.781-0.246-0.919-0.638c-0.172-0.493,0.099-1.027,0.606-1.195
				c2.644-0.871,3.277-3.315,3.301-3.42c0.127-0.502,0.639-0.816,1.166-0.698c0.521,0.118,0.845,0.617,0.726,1.123
				c-0.034,0.145-0.877,3.56-4.567,4.778C395.53,203.769,395.426,203.786,395.322,203.786z"/>
		</g>
	</g>
	<g>
		<g>
			<ellipse cx="392.02" cy="177.788" rx="3.449" ry="3.344"/>
		</g>
	</g>
	<g>
		<g>
			<ellipse cx="428.365" cy="169.578" rx="3.449" ry="3.344"/>
		</g>
	</g>
	<g>
		<g>
			<path fill="#D67951" d="M412.425,174.736c0,0,2.837,7.695,6.024,8.331s4.628-0.191,6.48,1.913
				c1.853,2.104-1.077,8.626-6.733,7.059C409.137,189.53,412.425,174.736,412.425,174.736z"/>
		</g>
	</g>
	<g>
		<g>
			<path fill="#42210B" d="M379.937,164.115c0.216-2.186,7.538-7.459,14.384-5.798c6.847,1.661-3.248,3.993-5.729,4.901
				C386.112,164.126,379.714,166.383,379.937,164.115z"/>
		</g>
	</g>
	<g>
		<g>
			<path fill="#42210B" d="M435.549,155.425c-0.744-1.924-8.828-4.363-14.742-0.631c-5.914,3.732,3.997,2.591,6.517,2.615
				C429.845,157.434,436.321,157.421,435.549,155.425z"/>
		</g>
	</g>
	<g>
		<g>
			<g>
				<path fill="#42210B" d="M354.803,202.137c-0.267,0-0.534-0.107-0.726-0.318c-7.636-8.36-13.545-4.482-13.795-4.313
					c-0.438,0.298-1.04,0.2-1.351-0.222c-0.309-0.421-0.212-1.003,0.22-1.307c0.076-0.053,7.541-5.085,16.378,4.596
					c0.356,0.388,0.318,0.983-0.083,1.327C355.262,202.06,355.032,202.137,354.803,202.137z"/>
			</g>
		</g>
		<g>
			<g>
				<path fill="#42210B" d="M345.466,203.176c-0.383,0-0.747-0.221-0.898-0.586c-1.467-3.499,0.697-7.042,0.79-7.191
					c0.279-0.445,0.872-0.584,1.329-0.318c0.459,0.266,0.608,0.844,0.334,1.288c-0.017,0.029-1.751,2.898-0.656,5.511
					c0.203,0.482-0.036,1.031-0.533,1.226C345.712,203.153,345.587,203.176,345.466,203.176z"/>
			</g>
		</g>
	</g>
	<g>
		<g>
			<g>
				<path fill="#E6E6E6" d="M742.935,1102.326c-3.92,0.827-11.534,5.242-23.772,15.814c0,0-1.78-10.572-6.657-16.479
					c3.271-1.833,6.155-3.187,8.326-3.658C730.14,1095.982,741.527,1096.99,742.935,1102.326z"/>
			</g>
		</g>
	</g>
	<g>
		<g>
			<g>
				<path fill="#E6E6E6" d="M675.507,1130.085c-0.407,0-0.786-0.25-0.919-0.645c-0.023-0.063-2.052-6.313,4.3-10.054
					c0.453-0.266,1.052-0.129,1.334,0.316c0.277,0.445,0.131,1.024-0.326,1.294c-5.013,2.951-3.531,7.662-3.464,7.86
					c0.163,0.494-0.116,1.024-0.625,1.183C675.708,1130.07,675.606,1130.085,675.507,1130.085z"/>
			</g>
		</g>
		<g>
			<g>
				<path fill="#E6E6E6" d="M681.701,1128.63c-0.309,0-0.61-0.143-0.798-0.408c-0.034-0.05-3.362-4.945,3.195-10.416
					c0.409-0.338,1.022-0.294,1.368,0.099c0.351,0.393,0.303,0.989-0.102,1.327c-5.195,4.333-2.951,7.79-2.854,7.936
					c0.292,0.432,0.174,1.014-0.269,1.301C682.074,1128.576,681.886,1128.63,681.701,1128.63z"/>
			</g>
		</g>
		<g>
			<g>
				<path fill="#E6E6E6" d="M687.439,1126.327c-0.383,0-0.745-0.221-0.896-0.586c-0.027-0.063-2.57-6.364,3.339-11.332
					c0.4-0.34,1.018-0.3,1.368,0.096c0.351,0.391,0.307,0.987-0.099,1.327c-4.837,4.065-2.896,8.998-2.811,9.205
					c0.197,0.483-0.044,1.029-0.54,1.222C687.682,1126.305,687.561,1126.327,687.439,1126.327z"/>
			</g>
		</g>
		<g>
			<g>
				<path fill="#E6E6E6" d="M693.148,1123.339c-0.318,0-0.627-0.151-0.813-0.428c-0.042-0.061-4.037-6.254,3.451-12.879
					c0.398-0.351,1.01-0.323,1.37,0.061c0.362,0.384,0.334,0.979-0.063,1.329c-6.233,5.517-3.256,10.273-3.127,10.472
					c0.286,0.437,0.154,1.02-0.296,1.297C693.508,1123.291,693.326,1123.339,693.148,1123.339z"/>
			</g>
		</g>
	</g>
	<g>
		<g>
			<path fill="#F2BF27" d="M379.464,242.389c1.165-2.35,29.37,6.041,39.604,5.61c10.235-0.432,11.57-7.336,11.57-7.336
				s3.782,9.062,0.445,16.182c0,0,6.007-3.668,18.912-3.668c23.585,0,57.849,114.782,57.849,114.782s-22.027-8.199-28.257,9.062
				c-6.23,17.26-121.706-18.986-121.706-18.986s-25.81-94.069-6.23-94.069c19.58,0,22.25,3.452,28.035-2.158
				C385.471,256.197,373.901,253.608,379.464,242.389z"/>
		</g>
	</g>
	<g>
		<g>
			<path d="M414.676,267.481c0.398-0.059,0.671-0.417,0.612-0.803c-0.063-0.382-0.423-0.654-0.828-0.594
				c-9.498,1.384-23.921-1.681-33.232-6.741c-0.101,0.424-0.277,0.857-0.574,1.306c8.013,4.346,19.39,7.187,28.697,7.187
				C411.224,267.835,413.015,267.721,414.676,267.481z"/>
		</g>
		<g>
			<path d="M424.915,263.807c0.121,0,0.244-0.029,0.358-0.092c2.667-1.462,5.288-4.342,7.207-7.554
				c-0.927,0.402-1.398,0.684-1.398,0.684c0.424-0.904,0.731-1.839,0.947-2.783c-1.799,3.53-4.61,6.857-7.473,8.426
				c-0.351,0.191-0.474,0.621-0.275,0.961C424.415,263.678,424.661,263.807,424.915,263.807z"/>
		</g>
		<g>
			<path d="M380.779,256.365c8.514,3.86,20.069,5.986,29.28,5.986c2.735,0,5.261-0.187,7.439-0.57
				c0.394-0.07,0.658-0.437,0.586-0.822c-0.072-0.38-0.425-0.634-0.847-0.568c-9.789,1.726-26.813-0.619-37.525-6.093
				C380.104,255.027,380.48,255.707,380.779,256.365z"/>
		</g>
		<g>
			<path d="M501.955,349.526c-3.728-0.801-7.584-1.025-11.359-0.537c-9.074,1.174-17.582,6.248-22.759,13.572
				c-0.227,0.322-0.142,0.761,0.19,0.981c0.125,0.083,0.269,0.123,0.411,0.123c0.231,0,0.459-0.107,0.601-0.307
				c4.946-6.998,13.079-11.848,21.751-12.969c3.892-0.509,7.87-0.222,11.686,0.701C502.305,350.576,502.132,350.057,501.955,349.526
				z"/>
		</g>
	</g>
	<g>
		<g>
			<path fill="#2D3540" d="M338.895,352.424c0,0,20.173,55.233,21.36,76.521c1.187,21.288-54.203,98.188-51.83,162.052
				s1.854,96.495,6.007,101.673c4.153,5.178,51.162,7.264,77.862,7.264c26.7,0,66.156-8.63,80.989-6.329s29.963,8.055,59.036,5.178
				c29.073-2.877,46.873-17.836,46.873-17.836s-76.774-183.228-81.582-202.522c-8.603-34.521-16.91-53.507-16.02-80.261
				c0.89-26.754-4.153-76.809-4.153-76.809s-74.759-1.726-88.109,6.904S338.895,352.424,338.895,352.424z"/>
		</g>
	</g>
	<g>
		<g>
			<path fill="none" d="M361.823,624.064c4.202,8.678,8.742,17.235,13.546,25.573c2.128-10.313,4.115-21.644,5.696-34.135
				c-0.976-3.116-2.032-6.212-3.222-9.263C375.372,608.847,367.29,617.777,361.823,624.064z"/>
		</g>
		<g>
			<path fill="none" d="M430.353,531.407c-0.091-0.38,0.154-0.759,0.544-0.847c0.402-0.092,0.785,0.149,0.874,0.527l13.276,55.48
				c0.044,0.182,0.087,0.368,0.131,0.551c0.814-0.668,1.625-1.553,2.43-2.674c6.51-9.058,5.035-23.248,1.793-32.646
				c-3.449-10.003-9.561-19.061-15.47-27.822c-1.706-2.529-3.462-5.133-5.144-7.742c-4.522,16.533-4.852,34.037-0.944,50.728
				c1.529,6.52,6.707,20.368,12.965,21.551c1.021,0.195,2.052,0.001,3.081-0.539c-0.085-0.36-0.172-0.726-0.257-1.084
				L430.353,531.407z"/>
		</g>
		<g>
			<path fill="#FFFFFF" d="M355.4,629.597c-1.926,3.128-3.888,6.485-5.837,9.967c0.136,0.755,0.269,1.515,0.366,2.313
				c2.238-4.055,4.506-7.954,6.722-11.556c0.413-0.671,2.007-2.592,4.136-5.061c-0.209-0.43-0.405-0.865-0.613-1.297
				C357.417,627.182,355.448,629.519,355.4,629.597z"/>
		</g>
		<g>
			<path fill="#FFFFFF" d="M378.174,604.256c-0.002-0.002-0.004-0.002-0.008-0.002c-0.094,0-0.294,0.135-0.569,0.363
				c0.338-0.055,0.681-0.091,1.022-0.137C378.499,604.361,378.353,604.27,378.174,604.256z"/>
		</g>
		<g>
			<path fill="#FFFFFF" d="M377.843,606.239c1.19,3.052,2.246,6.147,3.222,9.263c0.017-0.134,0.036-0.263,0.053-0.398
				c0.049-0.386,0.415-0.665,0.809-0.616c0.163,0.019,0.298,0.097,0.407,0.198c-0.946-2.984-1.982-5.943-3.121-8.869
				c-1.168,0.141-2.326,0.332-3.468,0.586c-3.462,3.573-9.84,10.886-14.538,16.356c0.208,0.434,0.407,0.871,0.616,1.304
				C367.29,617.777,375.372,608.847,377.843,606.239z"/>
		</g>
		<g>
			<path fill="#FFFFFF" d="M381.914,699.841c0.504,0.009,1.003,0.016,1.499,0.023c8.011-27.567,7.657-57.141-0.861-84.512
				c-0.15,1.191-0.308,2.356-0.465,3.526C389.642,645.23,389.652,673.471,381.914,699.841z"/>
		</g>
		<g>
			<path fill="#FFFFFF" d="M328.006,696.514c0.473,0.067,0.948,0.133,1.438,0.198c1.012-14.392,9.67-34.85,19.239-52.559
				c-0.069-0.867-0.151-1.72-0.259-2.542C338.416,659.825,329.123,681.372,328.006,696.514z"/>
		</g>
		<g>
			<path fill="#FFFFFF" d="M464.199,605.743c0.119,0.075,0.258,0.114,0.398,0.114c0.093,0,0.184-0.016,0.273-0.051
				c12.228-4.787,22.79-10.156,31.861-16.212c-0.009,0-0.015,0.005-0.024,0.005c-0.002,0-0.006,0-0.008,0
				c-0.398,0-0.724-0.311-0.728-0.698c-0.002-0.172,0.009-0.344,0.009-0.516c-8.758,5.855-18.931,11.064-30.678,15.728
				c-0.21-15.371,5.722-31.624,16.77-45.889c6.036-7.794,13.492-15.035,22.795-22.138c0.883-0.674,1.844-1.452,2.867-2.282
				c2.494-2.022,5.378-4.357,8.397-6.175c-0.177-0.444-0.356-0.893-0.533-1.333c-3.186,1.886-6.196,4.315-8.798,6.426
				c-1.01,0.82-1.96,1.59-2.833,2.255c-9.404,7.18-16.947,14.507-23.059,22.399c-11.49,14.836-17.542,31.812-17.04,47.8
				C463.876,605.403,464,605.616,464.199,605.743z"/>
		</g>
		<g>
			<path fill="#FFFFFF" d="M497.374,589.152c6.672-4.514,12.536-9.401,17.64-14.715c3.071-3.196,8.427-9.833,13.011-17.32
				c-0.231-0.568-0.463-1.139-0.694-1.705c-4.677,7.822-10.337,14.891-13.383,18.062c-1.31,1.365-2.679,2.696-4.091,4.005
				l-0.046,1.084c-0.017,0.379-0.339,0.676-0.728,0.676c-0.009,0-0.019,0-0.03,0c-0.297-0.012-0.541-0.196-0.644-0.447
				c-3.366,3.003-7.015,5.859-10.958,8.579c-0.001,0.505-0.03,1.01-0.025,1.515C497.428,588.979,497.408,589.069,497.374,589.152z"
				/>
		</g>
		<g>
			<path fill="#FFFFFF" d="M345.196,496.807c3.698,1.781,7.522,3.62,11.49,5.017c9.453,3.326,19.323,5.927,29.335,7.728
				c4.539,0.816,9.167,1.479,13.755,1.968c0.794,0.085,2.03,0.184,3.48,0.184c4.584-0.002,11.301-0.987,12.91-6.513
				c0.834-2.867-0.129-6.175-2.86-9.828c-7.503-10.038-19.68-15.604-31.722-20.123c-12.576-4.721-23.637-8.047-34.174-10.284
				c-0.205,0.437-0.409,0.875-0.617,1.316c10.555,2.222,21.637,5.544,34.264,10.284c11.835,4.442,23.788,9.895,31.07,19.635
				c2.458,3.288,3.345,6.188,2.636,8.619c-1.804,6.202-11.809,5.635-14.828,5.307c-4.552-0.483-9.144-1.141-13.649-1.954
				c-9.933-1.784-19.725-4.365-29.104-7.665c-3.893-1.369-7.677-3.192-11.339-4.955c-2.945-1.419-5.993-2.887-9.097-4.12
				c-0.468-0.187-0.966-0.344-1.447-0.516c-0.196,0.431-0.391,0.861-0.587,1.294c0.494,0.175,1.004,0.336,1.481,0.526
				C339.251,493.942,342.274,495.4,345.196,496.807z"/>
		</g>
		<g>
			<path fill="#FFFFFF" d="M358.768,591.941c1.357-3.021,1.13-6.377,0.73-9.26c-1.715-12.33-7.556-23.884-13.49-34.361
				c11.953,11.828,28.585,19.059,45.697,19.638c2.251,0.072,4.619-0.002,6.616-1.06c5.464-2.904,4.861-10.81,1.52-16.773
				c-5.61-10.021-14.439-17.764-23.146-24.641c-13.77-10.874-28.459-20.569-43.892-29.011c-0.192,0.434-0.385,0.868-0.578,1.304
				c15.311,8.386,29.885,18.01,43.551,28.802c8.591,6.783,17.297,14.414,22.788,24.218c2.396,4.28,4.258,12.098-0.942,14.862
				c-1.776,0.943-3.955,0.954-5.867,0.888c-18.956-0.641-37.309-9.626-49.097-24.038c-0.239-0.289-0.665-0.351-0.976-0.147
				c-0.315,0.206-0.415,0.61-0.229,0.932c6.847,11.824,14.608,25.227,16.602,39.574c0.375,2.692,0.595,5.807-0.62,8.511
				c-1.037,2.31-3.669,4.536-6.506,4.083c-1.963-0.307-3.603-1.784-5.113-3.273c-12.965-12.782-23.823-28.002-31.809-44.409
				c-0.188,0.714-0.353,1.43-0.534,2.145c7.978,15.957,18.635,30.762,31.304,43.253c1.681,1.656,3.523,3.304,5.921,3.677
				c0.334,0.051,0.661,0.077,0.987,0.077c1.061,0,2.065-0.283,2.984-0.734c0.603-0.405,1.186-0.831,1.809-1.211
				C357.466,594.121,358.267,593.057,358.768,591.941z"/>
		</g>
		<g>
			<path fill="#FFFFFF" d="M474.478,528.955c0.75,0.224,1.522,0.336,2.314,0.336c2.966,0,6.228-1.575,9.893-4.762
				c7.536-6.55,13.818-14.379,19.369-22.505c-0.211-0.548-0.42-1.088-0.624-1.622c-5.634,8.348-12.032,16.398-19.715,23.076
				c-3.955,3.437-7.308,4.844-10.202,4.276c2.851-16.788,12.913-31.471,23.703-44.179c-0.193-0.565-0.373-1.1-0.538-1.6
				c-11.272,13.168-21.902,28.5-24.707,46.198C473.915,528.52,474.131,528.852,474.478,528.955z"/>
		</g>
		<g>
			<path fill="#FFFFFF" d="M492.695,459.9c-0.129-0.463-0.253-0.906-0.381-1.364l-19.137,6.066
				c-7.683,2.437-15.618,4.953-23.807,5.166c1.73-6.579,7.785-11.335,12.671-14.208c8.474-4.98,17.426-7.048,26.889-9.178
				c-0.124-0.451-0.254-0.917-0.376-1.364c-9.168,2.062-18.616,4.249-27.267,9.336c-5.346,3.141-12.034,8.468-13.543,16
				c-0.042,0.208,0.015,0.421,0.154,0.584c0.138,0.164,0.313,0.248,0.565,0.255c8.741-0.042,17.091-2.689,25.166-5.25L492.695,459.9
				z"/>
		</g>
		<g>
			<path fill="#FFFFFF" d="M456.832,504.572c3.252-0.092,6.07-1.994,8.333-3.523l32.613-22.003
				c-0.059-0.212-0.123-0.438-0.169-0.621c-0.072-0.288-0.143-0.553-0.214-0.839l-33.06,22.305c-1.899,1.281-4.217,2.847-6.72,3.2
				c1.069-9.523,8.29-17.328,14.525-23.102c6.66-6.168,13.848-11.758,21.482-16.72c-0.132-0.479-0.263-0.964-0.394-1.437
				c-7.856,5.074-15.253,10.801-22.092,17.135c-6.605,6.116-14.284,14.469-15.05,24.85c-0.015,0.198,0.059,0.393,0.201,0.538
				C456.428,504.498,456.635,504.59,456.832,504.572z"/>
		</g>
		<g>
			<path fill="#FFFFFF" d="M427.593,688.712c2.388-5.78,4.145-11.767,5.227-17.791c0.172-0.959,0.205-3.273,0.241-5.951
				c0.047-3.488,0.135-9.972,0.792-10.808c0.29-0.257,0.318-0.691,0.061-0.981c-0.265-0.3-0.724-0.329-1.025-0.075
				c-0.002,0.002-0.004,0.002-0.006,0.004c-11.993,10.007-24.395,20.353-34.034,33.054c-3.103,4.089-6.11,8.667-7.789,13.768
				c0.411,0.001,0.832,0.003,1.235,0.003c0.083,0,0.17-0.002,0.253-0.003c1.616-4.659,4.427-8.917,7.473-12.93
				c9.055-11.931,20.627-21.811,31.983-31.295c-0.248,1.897-0.339,4.866-0.398,9.246c-0.034,2.508-0.066,4.879-0.218,5.726
				c-1.065,5.929-2.795,11.82-5.145,17.508c-1.378,3.341-2.946,6.547-4.653,9.625c0.595-0.068,1.188-0.136,1.783-0.206
				C424.914,694.751,426.327,691.781,427.593,688.712z"/>
		</g>
		<g>
			<path fill="#FFFFFF" d="M526.83,606.709c5.975-2.914,12.518-4.662,19.105-5.849c-0.183-0.445-0.367-0.892-0.552-1.339
				c-6.603,1.206-13.172,2.983-19.21,5.927c-13.141,6.408-24.321,18.389-34.18,36.627c-5.799,10.729-10.522,22.066-14.036,33.693
				c-0.388,1.279-0.762,2.567-1.135,3.856c-1.349,4.644-2.743,9.396-4.771,13.826c0.424,0.045,0.84,0.095,1.23,0.155
				c0.089,0.014,0.178,0.031,0.266,0.045c1.976-4.406,3.349-9.075,4.675-13.643c0.373-1.285,0.745-2.566,1.13-3.841
				c3.489-11.539,8.176-22.788,13.93-33.436C502.997,624.763,513.97,612.981,526.83,606.709z"/>
		</g>
		<g>
			<path fill="#FFFFFF" d="M546.946,623.258c2.341-0.852,4.807-1.627,7.254-2.383c-0.18-0.436-0.362-0.875-0.543-1.313
				c-2.432,0.75-4.881,1.522-7.223,2.376c-16.486,6.004-30.535,17.385-39.564,32.049c-4.605,7.483-7.865,15.75-11.017,23.744
				c-1.147,2.907-2.293,5.815-3.504,8.691c-1.318,3.133-2.869,6.541-4.685,9.978c0.484,0.097,0.987,0.192,1.479,0.289
				c1.755-3.356,3.267-6.674,4.555-9.733c1.213-2.885,2.363-5.802,3.514-8.72c3.131-7.937,6.366-16.145,10.909-23.523
				C516.979,640.322,530.769,629.152,546.946,623.258z"/>
		</g>
		<g>
			<path fill="#FFFFFF" d="M427.965,451.872c8.642-7.241,17.58-14.73,28.449-17.902c4.603-1.345,9.504-1.882,14.244-2.402
				c2.56-0.281,5.208-0.572,7.795-0.985c2.22-0.355,4.271-0.808,6.183-1.344c-0.099-0.461-0.195-0.922-0.291-1.382
				c-1.886,0.534-3.923,0.98-6.129,1.333c-2.551,0.408-5.18,0.697-7.721,0.976c-4.804,0.526-9.772,1.071-14.502,2.452
				c-11.165,3.26-20.222,10.848-28.979,18.186c-1.317,1.103-2.631,2.203-3.946,3.286c-9.091,7.472-21.287,15.974-34.676,15.748
				c-7.175-0.143-14.074-2.786-20.745-5.341c-3.715-1.424-7.556-2.894-11.447-3.946c-2.048-0.553-4.105-0.945-6.159-1.255
				c-0.201,0.437-0.411,0.89-0.617,1.334c2.129,0.306,4.261,0.708,6.386,1.281c3.817,1.031,7.622,2.488,11.301,3.898
				c6.792,2.6,13.816,5.291,21.251,5.44c14.007,0.276,26.364-8.448,35.646-16.082C425.328,454.081,426.644,452.979,427.965,451.872z
				"/>
		</g>
		<g>
			<path fill="#FFFFFF" d="M312.085,683.648c0.099,0.825,0.206,1.579,0.316,2.298c3.888-5.951,10.757-21.697,21.111-52.026
				c-0.754,0.708-1.51,1.411-2.266,2.134C321.011,665.761,315.117,678.357,312.085,683.648z"/>
		</g>
		<g>
			<path fill="#FFFFFF" d="M335.876,626.923c2.068-6.179,4.023-11.701,7.05-16.691c11.079-18.282,37.714-26.73,59.372-18.844
				c7.67,2.795,14.688,7.316,21.474,11.686c7.276,4.686,14.799,9.532,23.205,12.322c7.018,2.328,15.127,3.385,24.785,3.233
				c13.022-0.208,24.315-2.562,33.566-6.998c13.78-6.606,24.04-18.058,32.893-29.544c-0.21-0.512-0.42-1.025-0.63-1.537
				c-8.872,11.584-19.138,23.215-32.907,29.817c-9.055,4.343-20.14,6.647-32.944,6.851c-9.502,0.147-17.436-0.878-24.292-3.155
				c-8.225-2.731-15.671-7.526-22.869-12.164c-6.855-4.414-13.943-8.979-21.768-11.83c-15.305-5.58-33.029-3.212-46.333,4.919
				c-0.623,0.38-1.206,0.806-1.809,1.211c-5.274,3.55-9.783,8.016-12.996,13.317c-3.101,5.115-5.087,10.712-7.179,16.974
				c-0.766,2.288-1.504,4.468-2.227,6.588c0.75-0.703,1.494-1.397,2.239-2.081C334.957,629.662,335.412,628.31,335.876,626.923z"/>
		</g>
		<g>
			<path fill="#FFFFFF" d="M312.874,688.542c0.434,1.979,0.944,3.362,1.559,4.128c0.105,0.131,0.257,0.26,0.417,0.387
				C314.242,691.186,313.585,689.65,312.874,688.542z"/>
		</g>
		<g>
			<path fill="#FFFFFF" d="M384.013,605.581c10.564,0.263,19.958,5.896,29.044,11.341c4.084,2.448,8.307,4.979,12.616,7.024
				c13.539,6.421,29.138,8.402,43.928,5.587c7.596-1.448,14.839-4.146,20.303-6.335c22.366-8.955,39.571-20.169,51.457-33.456
				c-0.204-0.495-0.406-0.991-0.61-1.487c-11.749,13.365-28.935,24.642-51.404,33.638c-5.399,2.163-12.557,4.83-20.026,6.254
				c-14.477,2.762-29.752,0.82-43.007-5.469c-4.247-2.014-8.437-4.526-12.491-6.956c-9.25-5.544-18.813-11.278-29.771-11.552
				c-1.842-0.049-3.651,0.073-5.432,0.311c-0.341,0.045-0.684,0.082-1.022,0.137c-9.263,1.504-17.636,6.474-24.852,11.369
				c-4.99,3.384-11.49,8.807-18.24,15.01c-0.745,0.685-1.49,1.379-2.239,2.081c-7.739,7.253-15.62,15.345-21.807,22.493
				c0.024,0.725,0.048,1.449,0.073,2.152c5.75-6.733,13.221-14.518,20.714-21.669c0.756-0.722,1.511-1.426,2.266-2.134
				c7.452-6.98,14.723-13.15,20.067-16.775c6.523-4.425,13.99-8.925,22.166-10.74c1.142-0.254,2.3-0.445,3.468-0.586
				C380.791,605.628,382.389,605.534,384.013,605.581z"/>
		</g>
		<g>
			<path fill="#FFFFFF" d="M470,337.075c2.647-1.367,5.499-2.781,8.504-4.158c-0.045-0.51-0.088-1.019-0.131-1.502
				c-3.211,1.457-6.248,2.962-9.059,4.414c-23.303,12.037-38.465,24.604-47.709,39.543c-2.109,3.407-2.378,6.179-0.779,8.014
				c1.763,2.023,4.927,2.012,9.156-0.022c13.939-6.721,28.153-13.574,41.944-21.204c-7.761,6.311-15.031,13.193-21.76,20.609
				c-5.354,5.901-10.734,13.024-10.037,21.121c0.085,0.991,0.303,2.442,1.203,3.609c1.317,1.7,3.584,2.183,5.253,2.288
				c0.33,0.022,0.658,0.031,0.986,0.031c5.814,0,11.197-3.194,15.823-6.226c6.253-4.098,12.354-8.431,18.299-12.962
				c-0.001-0.584-0.006-1.178-0.01-1.775c-6.194,4.756-12.569,9.287-19.103,13.569c-4.687,3.071-10.143,6.304-15.899,5.956
				c-1.365-0.086-3.199-0.458-4.185-1.728c-0.514-0.665-0.804-1.58-0.915-2.88c-0.654-7.568,4.526-14.393,9.677-20.07
				c8.809-9.708,18.559-18.481,29.119-26.258c-0.037-0.568-0.073-1.139-0.111-1.703c-0.056,0.041-0.114,0.079-0.17,0.12
				c-16.477,9.707-33.825,18.073-50.762,26.238c-2.483,1.196-5.778,2.233-7.397,0.375c-1.541-1.77-0.087-4.754,0.915-6.375
				C431.956,361.387,446.937,348.987,470,337.075z"/>
		</g>
		<g>
			<path fill="#FFFFFF" d="M369.078,386.253c-0.046,0.27,0.074,0.54,0.307,0.695c4.037,2.674,8.399,5.416,13.001,8.097
				c-0.33,1.639-0.563,3.315-0.688,5.023c-0.028,0.388,0.273,0.726,0.675,0.753c0.392,0.033,0.749-0.265,0.777-0.654
				c0.108-1.476,0.299-2.926,0.569-4.352c18.641,10.709,40.997,20.243,61.508,20.243c2.458,0,4.895-0.138,7.291-0.426
				c8.68-1.046,17.18-3.532,25.397-5.934c1.258-0.368,2.532-0.737,3.806-1.105c-0.027-0.482-0.051-0.967-0.073-1.452
				c-1.392,0.4-2.779,0.805-4.152,1.206c-8.161,2.385-16.6,4.852-25.157,5.884c-22.149,2.679-47.58-7.908-68.317-19.881
				c4.209-18.583,21.194-32.778,34.153-42.133c2.117-1.527,4.264-3.045,6.419-4.569c11.203-7.92,22.685-16.045,31.091-26.408
				c-0.624,0.005-1.257,0.011-1.897,0.017c-8.225,9.8-19.264,17.625-30.051,25.25c-2.161,1.527-4.312,3.047-6.43,4.578
				c-13.05,9.419-30.118,23.691-34.6,42.5c-4.272-2.503-8.335-5.054-12.114-7.55c2.38-13.05,13.323-22.772,22.138-28.654
				c4.738-3.163,9.842-5.984,14.777-8.713c6.182-3.418,12.574-6.952,18.351-11.208c6.446-4.751,11.875-10.208,16.499-16.003
				c-0.622,0.016-1.251,0.035-1.876,0.053c-4.391,5.362-9.504,10.405-15.503,14.825c-5.701,4.199-12.051,7.711-18.194,11.107
				c-4.96,2.744-10.09,5.579-14.881,8.777C382.757,362.324,371.373,372.488,369.078,386.253z"/>
		</g>
		<g>
			<path fill="#FFFFFF" d="M448.8,585.253c6.819-9.49,5.327-24.194,1.979-33.903c-3.508-10.174-9.671-19.311-15.631-28.147
				c-2.001-2.966-4.071-6.033-6.004-9.088c-0.15-0.239-0.428-0.382-0.72-0.329c-0.286,0.039-0.521,0.237-0.601,0.507
				c-5.001,17.214-5.485,35.535-1.399,52.981c1.361,5.809,6.546,21.197,14.104,22.625c0.373,0.07,0.745,0.107,1.114,0.107
				c0.873,0,1.734-0.208,2.585-0.6c-0.114-0.477-0.226-0.956-0.34-1.431c-1.029,0.539-2.059,0.733-3.081,0.539
				c-6.258-1.184-11.436-15.031-12.965-21.551c-3.908-16.691-3.578-34.195,0.944-50.728c1.681,2.61,3.438,5.214,5.144,7.742
				c5.909,8.761,12.021,17.819,15.47,27.822c3.243,9.398,4.717,23.588-1.793,32.646c-0.805,1.121-1.616,2.006-2.43,2.674
				c0.12,0.503,0.241,1.013,0.361,1.518C446.65,587.847,447.741,586.728,448.8,585.253z"/>
		</g>
		<g>
			<path fill="#FFFFFF" d="M310.687,585.805c0.625,1.115,1.257,2.248,1.914,3.38c0.989,1.705,2.041,3.415,3.1,5.137
				c4.078,6.631,8.297,13.489,9.4,20.886c0.097,0.643,0.246,2.17-0.426,2.422c-2.24,0.861-9.764-5.497-15.706-11.114
				c0.022,0.673,0.045,1.354,0.066,2.019c5.472,5.157,12.006,10.554,15.329,10.554c0.248,0,0.479-0.031,0.69-0.094
				c1.323-0.393,1.823-1.737,1.488-3.99c-1.145-7.676-5.439-14.656-9.59-21.408c-1.054-1.711-2.1-3.411-3.082-5.104
				c-0.654-1.128-1.283-2.251-1.905-3.363c-1.101-1.968-2.196-3.896-3.358-5.742c-0.055,0.868-0.075,1.73-0.112,2.595
				C309.235,583.234,309.961,584.507,310.687,585.805z"/>
		</g>
		<g>
			<path fill="#FFFFFF" d="M445.046,586.567l-13.276-55.48c-0.089-0.379-0.472-0.619-0.874-0.527
				c-0.39,0.088-0.635,0.467-0.544,0.847l13.278,55.484c0.085,0.358,0.172,0.724,0.257,1.084c0.114,0.475,0.226,0.953,0.34,1.431
				c1.241,5.234,2.464,10.588,3.288,15.929c0.055,0.349,0.366,0.601,0.72,0.601c0.034,0,0.072-0.002,0.108-0.007
				c0.398-0.059,0.671-0.417,0.612-0.803c-0.858-5.545-2.131-11.083-3.418-16.488c-0.12-0.506-0.241-1.015-0.361-1.518
				C445.133,586.936,445.089,586.75,445.046,586.567z"/>
		</g>
		<g>
			<path fill="#FFFFFF" d="M499.004,561.502c7.356-7.148,14.737-14.285,22.13-21.412c-0.192-0.477-0.387-0.958-0.578-1.433
				c-14.657,14.127-29.285,28.324-43.729,42.467c-3.62,3.545-7.444,7.752-6.976,12.802c0.032,0.368,0.351,0.643,0.724,0.643
				c0.021,0,0.044,0,0.064-0.004c0.402-0.033,0.696-0.377,0.66-0.764c-0.411-4.449,3.173-8.364,6.563-11.685
				c6.906-6.763,13.86-13.538,20.833-20.314C498.765,561.669,498.87,561.567,499.004,561.502z"/>
		</g>
		<g>
			<path fill="#FFFFFF" d="M428.821,661.807c-0.339-0.219-0.79-0.123-1.006,0.204c-8.186,12.143-15.931,24.666-23.191,37.433
				c0.577-0.041,1.156-0.083,1.739-0.128c7.11-12.454,14.677-24.676,22.669-36.533C429.251,662.458,429.159,662.02,428.821,661.807z
				"/>
		</g>
		<g>
			<path fill="#FFFFFF" d="M375.366,652.556c-0.152-0.26-0.296-0.526-0.446-0.787c-2.676,12.676-5.537,23.804-8.069,33.629
				c-1.283,4.981-2.463,9.579-3.502,13.898c0.494,0.021,0.987,0.039,1.48,0.059c1.022-4.235,2.178-8.739,3.434-13.616
				c2.483-9.63,5.28-20.509,7.91-32.871c-0.059,0.014-0.115,0.045-0.174,0.045C375.747,652.914,375.5,652.786,375.366,652.556z"/>
		</g>
		<g>
			<path fill="#FFFFFF" d="M382.551,615.352c0.003-0.027,0.007-0.052,0.01-0.079c0.029-0.229-0.068-0.437-0.227-0.586
				c-0.11-0.102-0.244-0.18-0.407-0.198c-0.394-0.05-0.76,0.23-0.809,0.616c-0.017,0.135-0.036,0.264-0.053,0.398
				c-1.581,12.49-3.568,23.822-5.696,34.135c0.365,0.634,0.716,1.279,1.084,1.91c2.078-9.895,4.034-20.742,5.633-32.669
				C382.243,617.708,382.402,616.543,382.551,615.352z"/>
		</g>
		<g>
			<path fill="#FFFFFF" d="M496.699,589.598c0.002,0,0.006,0,0.008,0c0.009,0,0.015-0.005,0.024-0.005
				c0.294-0.012,0.541-0.19,0.643-0.441c0.034-0.083,0.054-0.172,0.053-0.267c-0.006-0.505,0.024-1.01,0.025-1.515
				c0.008-8.425,0.857-16.862,2.589-25.102c0.081-0.382-0.172-0.755-0.567-0.833c-0.169-0.038-0.33-0.004-0.47,0.066
				c-0.134,0.066-0.239,0.168-0.31,0.3c-0.031,0.058-0.064,0.116-0.079,0.183c-1.822,8.664-2.699,17.542-2.635,26.398
				c0.001,0.172-0.01,0.345-0.009,0.516C495.975,589.287,496.301,589.598,496.699,589.598z"/>
		</g>
		<g>
			<path fill="#FFFFFF" d="M509.054,579.238c0.011,0,0.021,0,0.03,0c0.389,0,0.711-0.298,0.728-0.676l0.046-1.084l1.093-25.661
				c0.015-0.39-0.296-0.719-0.697-0.735c-0.011,0-0.021,0-0.03,0c-0.389,0-0.711,0.298-0.728,0.676l-1.139,26.745
				c-0.004,0.102,0.016,0.198,0.053,0.288C508.513,579.043,508.757,579.226,509.054,579.238z"/>
		</g>
		<g>
			<path fill="#FFFFFF" d="M347.723,633.528c-0.172-0.353-0.608-0.498-0.97-0.331c-0.362,0.169-0.515,0.59-0.341,0.941
				c1.023,2.068,1.639,4.63,2.014,7.473c0.108,0.822,0.19,1.675,0.259,2.542c0.357,4.485,0.256,9.488,0.14,14.419
				c-0.22,9.347-0.447,19.013,2.557,25.082c0.125,0.254,0.385,0.401,0.656,0.401c0.106,0,0.214-0.022,0.315-0.07
				c0.362-0.169,0.516-0.59,0.341-0.941c-2.852-5.763-2.629-15.259-2.413-24.44c0.135-5.762,0.267-11.64-0.351-16.727
				c-0.097-0.798-0.229-1.558-0.366-2.313C349.156,637.325,348.583,635.267,347.723,633.528z"/>
		</g>
		<g>
			<path fill="#FFFFFF" d="M361.823,624.064c-0.209-0.433-0.407-0.87-0.616-1.304c-1.07-2.23-2.142-4.46-3.167-6.702
				c-0.161-0.357-0.589-0.513-0.961-0.358c-0.368,0.158-0.533,0.575-0.37,0.932c1.121,2.452,2.289,4.893,3.464,7.332
				c0.208,0.431,0.404,0.866,0.613,1.297c4.378,9.003,9.114,17.882,14.132,26.509c0.151,0.26,0.295,0.527,0.446,0.787
				c0.135,0.23,0.381,0.358,0.633,0.358c0.06,0,0.116-0.03,0.174-0.045c0.062-0.015,0.126-0.015,0.184-0.047
				c0.351-0.193,0.474-0.623,0.275-0.961c-0.061-0.104-0.118-0.21-0.179-0.315c-0.368-0.631-0.719-1.276-1.084-1.91
				C370.564,641.299,366.024,632.742,361.823,624.064z"/>
		</g>
		<g>
			<path fill="#FFFFFF" d="M522.773,689.791c1.577-9.702,5.82-18.832,12.269-26.399c4.819-5.657,10.842-10.385,16.666-14.956
				c3.14-2.468,6.391-5.017,9.43-7.697c0.323-0.284,0.625-0.569,0.939-0.854c-0.193-0.467-0.386-0.93-0.582-1.403
				c-0.44,0.404-0.877,0.809-1.335,1.213c-3.011,2.65-6.243,5.188-9.37,7.643c-5.879,4.615-11.959,9.387-16.871,15.152
				c-6.616,7.765-10.967,17.13-12.584,27.079c-0.472,2.906-0.744,6.373-0.397,9.932c0.487-0.013,0.962-0.021,1.457-0.039
				C522.049,696.007,522.314,692.623,522.773,689.791z"/>
		</g>
		<g>
			<path fill="#FFFFFF" d="M569.103,656.781c-3.877,3.858-7.676,7.893-10.836,12.368c-4.704,6.664-7.952,14.239-11.092,21.564
				c-0.859,2.002-1.729,4.023-2.631,6.038c0.596-0.137,1.194-0.273,1.777-0.419c0.75-1.697,1.478-3.394,2.2-5.078
				c3.112-7.259,6.328-14.766,10.948-21.309c2.974-4.214,6.557-8.053,10.232-11.73C569.507,657.75,569.303,657.26,569.103,656.781z"
				/>
		</g>
	</g>
	<g>
		<g>
			<path fill="#171B20" d="M370.638,426.932c2.818,4.351,15.612-1.906,25.29-7.408c9.679-5.502,16.428-10.356,14.166-16.182
				c-2.262-5.825-14.611-12.082-14.611-12.082s-23.807,7.12-24.586,8.522s-5.117,19.418-4.45,20.389
				C367.115,421.142,370.638,426.932,370.638,426.932z"/>
		</g>
	</g>
	<g>
		<g>
			<path fill="#2D3540" d="M390.811,365.369c1.794,4.348,22.546,4.027,24.03,2.301s-3.115-33.154-15.352-59.477
				c-12.237-26.322-22.027-44.661-23.807-45.093c-1.78-0.432-4.672,0.647-7.342,0.431c-2.67-0.216-13.572-3.021-15.13-0.431
				c-1.557,2.589,4.005,3.884,12.015,16.829c8.01,12.945,16.242,35.384,21.36,51.997
				C391.701,348.54,389.031,361.054,390.811,365.369z"/>
		</g>
	</g>
	<g>
		<g>
			<path fill="#2D3540" d="M432.195,255.981c2.447,1.51,19.58,9.925,27.812,36.247c8.232,26.322,3.115,53.076,4.45,56.312
				c1.335,3.236,11.644,10.716,14.314,7.48s0.445-46.244-7.12-62.857c-7.565-16.613-23.681-41.277-32.744-39.951
				C433.011,254.076,432.195,255.981,432.195,255.981z"/>
		</g>
	</g>
	<g>
		<g>
			<path fill="#F3A771" d="M674.306,572.81c0,0-10.377,6.774-28.264,1.514c-17.887-5.26-34.756-24.012-37.233-29.297
				c-2.477-5.285,10.014-5.301,10.014-5.301s19.611,18.574,27.409,22.211C654.03,565.573,674.306,572.81,674.306,572.81z"/>
		</g>
	</g>
	<g>
		<g>
			<path fill="#F3A771" d="M626.429,548.961c0,0,8.636-1.745,13.026,0.488c7.472,3.801,11.993,1.151,14.36,1.764
				c2.367,0.613-1.68,6.462-4.991,6.239c-3.311-0.224-7.518-2.231-7.872,2.074C640.598,563.829,626.429,548.961,626.429,548.961z"/>
		</g>
	</g>
	<g>
		<g>
			<path fill="#F25B3A" d="M661.603,1126.865c-2.416,0-4.06-2.369-5.65-4.662c-0.381-0.548-0.754-1.09-1.124-1.566
				c-1.636-2.115-24.3-50.266-45.543-97.796c-4.552-10.184-9.064-20.386-13.52-30.612c-1.344-3.083-9.804-14.646-3.723-15.422
				c9.227-1.177,17.432,0.881,26.437-2.823c6.547-2.694,11.83-8.217,18.114-10.74c10.314,45.057,19.722,91.385,27.803,137.121
				c0.971,5.495,4.201,14.645,2.444,20.264C665.934,1123.532,664.518,1126.865,661.603,1126.865z"/>
		</g>
	</g>
	<g>
		<g>
			<path fill="#F25B3A" d="M326.92,1105.637c-1.419,0-2.445-0.926-3.271-1.671c-0.246-0.222-0.642-0.581-0.853-0.702
				c-0.898-0.004-2.721-0.083-4.029-1.599c-1.505-1.744-2.56-5.177-0.117-18.38c2.664-14.382,30.069-125.618,32.988-124.843
				c0.988,0.263,1.594,1.19,2.215,1.98c2.639,3.355,6.861,5.094,10.888,6.692c6.443,2.557,12.924,5.125,19.719,6.588
				c1.768,0.381,3.636,0.723,5.029,1.847c5.283,4.266-6.348,18.435-8.691,22.546c-24.455,42.917-45.575,79.983-46.968,89.664
				C331.643,1102.963,329.86,1105.637,326.92,1105.637z"/>
		</g>
	</g>
	<g>
		<g>
			<path fill="#151514" d="M317.742,1090.02c0,0-3.708,2.445-3.708,7.192c0,10.069,27.886,52.788,52.954,52.788
				c18.986,0,32.93-4.315,32.93-9.925c0-7.911-40.049-15.678-52.658-29.63c-12.608-13.952-13.943-21.144-13.943-21.144
				S330.054,1096.349,317.742,1090.02z"/>
		</g>
	</g>
	<g>
		<g>
			<g>
				<path fill="#E6E6E6" d="M399.918,1140.075c0,1.643-1.225,3.17-3.395,4.515c-33.143,6.681-44.59-3.904-44.59-3.904
					c4.812-9.133,14.718-13.278,21.588-15.115C386.995,1131.133,399.918,1135.582,399.918,1140.075z"/>
			</g>
		</g>
	</g>
	<g>
		<g>
			<path fill="#151514" d="M325.83,1093.467c0,0,5.221-24.927,11.043-26.956c2.129-0.742,6.942,4.259,10.916,5.733
				c3.974,1.474,12.689,1.64,11.122,3.811s-26.919,17.347-28.477,23.861C328.876,1106.43,325.83,1093.467,325.83,1093.467z"/>
		</g>
	</g>
	<g>
		<g>
			<g>
				<path fill="#E6E6E6" d="M326.525,1103.27c-0.29,0-0.576-0.125-0.768-0.364c-0.328-0.41-0.254-1,0.169-1.319
					c0.326-0.244,8.024-5.949,13.949-1.656c0.428,0.311,0.515,0.901,0.195,1.318c-0.322,0.417-0.931,0.502-1.359,0.189
					c-4.744-3.442-11.525,1.584-11.593,1.634C326.942,1103.206,326.732,1103.27,326.525,1103.27z"/>
			</g>
		</g>
		<g>
			<g>
				<path fill="#E6E6E6" d="M331.551,1107.727c-0.227,0-0.455-0.077-0.639-0.232c-0.404-0.342-0.445-0.937-0.093-1.329
					c0.053-0.059,5.337-5.782,12.925-1.972c0.476,0.239,0.661,0.807,0.415,1.268c-0.248,0.465-0.834,0.64-1.308,0.404
					c-6.26-3.143-10.528,1.49-10.569,1.538C332.089,1107.618,331.82,1107.727,331.551,1107.727z"/>
			</g>
		</g>
		<g>
			<g>
				<path fill="#E6E6E6" d="M335.758,1112.139c-0.193,0-0.389-0.055-0.559-0.171c-0.438-0.3-0.542-0.888-0.235-1.312
					c0.044-0.059,4.476-5.965,13.611-1.7c0.483,0.224,0.686,0.787,0.453,1.255c-0.233,0.469-0.817,0.667-1.294,0.439
					c-7.668-3.582-11.147,1.04-11.182,1.09C336.363,1112,336.062,1112.139,335.758,1112.139z"/>
			</g>
		</g>
		<g>
			<g>
				<path fill="#E6E6E6" d="M339.562,1116.62c-0.195,0-0.392-0.055-0.561-0.173c-0.436-0.301-0.54-0.884-0.233-1.307
					c0.045-0.061,4.48-5.964,13.609-1.7c0.483,0.224,0.686,0.787,0.453,1.255c-0.233,0.469-0.823,0.667-1.294,0.439
					c-7.6-3.541-11.039,0.904-11.183,1.094C340.163,1116.484,339.863,1116.62,339.562,1116.62z"/>
			</g>
		</g>
	</g>
	<g>
		<g>
			<path fill="#151514" d="M666.047,1125.732c0,0-3.239-28.209-0.112-32.495c1.144-1.568,4.871,0.855,7.494,0.483
				s7.852-3.927,7.289-1.321s-9.008,23.504-8.825,29.985S666.047,1125.732,666.047,1125.732z"/>
		</g>
	</g>
	<g>
		<g>
			<path fill="#FFFFFF" d="M600.102,998.27c5.524,0,11.032-0.976,16.088-2.097c10.003-2.217,18.569-5.115,25.815-8.731
				c-0.28-1.274-0.556-2.551-0.837-3.823c-7.141,3.693-15.712,6.641-25.843,8.886c-5.87,1.301-12.366,2.398-18.62,1.85
				c0.562,1.285,1.137,2.565,1.7,3.85C598.971,998.226,599.536,998.27,600.102,998.27z"/>
		</g>
		<g>
			<path fill="#FFFFFF" d="M644.694,999.793c-0.276-1.286-0.551-2.571-0.828-3.856c-12.514,7.047-26.842,11.078-41.319,11.644
				c0.545,1.233,1.088,2.466,1.634,3.698C618.343,1010.506,632.33,1006.532,644.694,999.793z"/>
		</g>
	</g>
	<g>
		<g>
			<path fill="#FFFFFF" d="M346.864,971.351c-0.371,1.254-0.758,2.578-1.158,3.974c11.238,8.772,25.197,14.393,39.553,16.051
				c0.749-1.144,1.497-2.342,2.204-3.56C372.656,986.471,358.195,980.649,346.864,971.351z"/>
		</g>
		<g>
			<path fill="#FFFFFF" d="M369.064,998.742c-9.452-3.274-17.942-8.86-25.714-15.022c-0.356,1.296-0.72,2.628-1.089,3.987
				c7.675,5.953,16.075,11.315,25.497,14.578c3.025,1.048,6.123,1.855,9.26,2.447c0.66-1.157,1.321-2.319,1.986-3.487
				C375.634,1000.681,372.303,999.864,369.064,998.742z"/>
		</g>
	</g>
	<g>
		<path d="M361.869,692.301c0.488,0.036,0.978,0.071,1.472,0.105c-0.266-2.991-0.474-6.039-0.641-9.121
			c-0.487,0.146-0.969,0.283-1.436,0.401C361.425,686.594,361.62,689.473,361.869,692.301z"/>
		<path d="M361.986,662.69c-0.337-13.614-0.655-26.475-2.418-37.369c-4.806-29.715-3.847-56.647,2.852-80.047
			c3.499-12.225,8.739-24.122,13.805-35.627c2.983-6.774,6.069-13.778,8.774-20.791c1.539-3.993,2.964-8.242,2.04-12.434
			c-0.178-0.807-0.442-1.59-0.694-2.349c-0.398-1.185-0.771-2.305-0.83-3.462c-0.12-2.327,1.061-4.583,2.204-6.767l0.275-0.526
			c8.638-16.639,10.435-36.417,4.93-54.265c-0.116-0.373-0.516-0.586-0.906-0.474c-0.385,0.112-0.605,0.505-0.489,0.878
			c5.401,17.507,3.639,36.906-4.835,53.225l-0.273,0.524c-1.228,2.347-2.498,4.773-2.361,7.474c0.07,1.345,0.493,2.608,0.9,3.828
			c0.254,0.757,0.493,1.474,0.655,2.207c0.843,3.821-0.515,7.847-1.98,11.644c-2.693,6.983-5.771,13.972-8.748,20.732
			c-5.087,11.548-10.344,23.488-13.869,35.803c-6.755,23.597-7.727,50.73-2.887,80.643c1.746,10.804,2.064,23.619,2.4,37.187
			c0.162,6.506,0.328,13.082,0.657,19.531c0.467-0.124,0.946-0.264,1.435-0.416C362.307,675.517,362.144,669.069,361.986,662.69z"/>
		<path d="M585.437,651.196c-0.191-0.459-0.382-0.917-0.578-1.386c-14.487,12.704-35.262,15.55-47.475,16.013
			c-10.141,0.391-20.46-0.336-30.446-1.038c-10.389-0.728-21.131-1.478-31.721-0.994c-8.559,0.395-17.166,1.608-25.49,2.779
			c-2.782,0.393-5.564,0.785-8.348,1.147c-16.594,2.165-33.486,3.326-50.205,3.455c-3.649,0.029-9.607,2.702-15.916,5.534
			c-4.221,1.894-8.756,3.928-12.635,5.135c-0.49,0.152-0.969,0.292-1.435,0.416c-2.466,0.656-4.586,0.891-6.068,0.412
			c-8.786-2.817-16.283-8.558-23.533-14.11c-1.424-1.09-2.861-2.187-4.315-3.271c0.034,0.634,0.069,1.259,0.105,1.865
			c1.11,0.837,2.214,1.677,3.309,2.515c7.347,5.627,14.947,11.446,23.976,14.344c0.682,0.217,1.45,0.318,2.293,0.318
			c1.279,0,2.738-0.243,4.31-0.64c0.467-0.118,0.949-0.256,1.436-0.401c4-1.198,8.622-3.26,13.17-5.301
			c6.161-2.766,11.981-5.377,15.315-5.403c16.78-0.129,33.732-1.296,50.387-3.466c2.789-0.364,5.577-0.757,8.363-1.15
			c8.291-1.167,16.863-2.374,25.35-2.764c10.499-0.491,21.201,0.265,31.549,0.991c10.022,0.704,20.383,1.421,30.607,1.042
			C549.76,666.766,570.638,663.9,585.437,651.196z"/>
	</g>
	<g>
		<g>
			<g>
				<path fill="#FF8369" d="M370.944,156.695c-0.288,0-0.561-0.167-0.675-0.441c-0.15-0.362,0.03-0.774,0.402-0.919
					c8.771-3.427,15.952-8.059,21.342-13.765c6.135-6.496,9.817-14.404,10.372-22.268c0.027-0.388,0.303-0.709,0.775-0.656
					c0.402,0.026,0.705,0.364,0.677,0.752c-0.576,8.182-4.395,16.395-10.751,23.125c-5.538,5.864-12.895,10.615-21.868,14.121
					C371.126,156.678,371.035,156.695,370.944,156.695z"/>
			</g>
		</g>
		<g>
			<g>
				<path fill="#FF8369" d="M370.918,149.439c-0.199,0-0.398-0.079-0.542-0.233c-0.267-0.29-0.243-0.737,0.055-0.998
					c9.976-8.698,18.222-18.934,24.51-30.42c0.188-0.345,0.633-0.478,0.984-0.292c0.354,0.182,0.491,0.61,0.301,0.954
					c-6.368,11.633-14.72,21.998-24.821,30.81C371.265,149.379,371.092,149.439,370.918,149.439z"/>
			</g>
		</g>
	</g>
	<g>
		<g>
			<g>
				<path fill="#FF8369" d="M294.891,226.072c-4.221,0-7.772-1.31-9.969-3.736c-2.657-2.933-3.385-7.553-1.996-12.677
					c1.962-7.237,7.251-12.818,13.471-14.221c6.576-1.483,12.993,1.404,19.537,4.76c0.354,0.182,0.491,0.608,0.301,0.954
					c-0.188,0.344-0.631,0.476-0.984,0.292c-6.284-3.223-12.429-6.002-18.525-4.631c-5.703,1.285-10.566,6.469-12.394,13.206
					c-0.597,2.205-1.628,7.728,1.683,11.387c3.273,3.613,8.957,3.376,11.254,3.113c0.409-0.061,0.762,0.228,0.809,0.616
					c0.049,0.388-0.237,0.739-0.635,0.785C296.57,226.023,295.717,226.072,294.891,226.072z"/>
			</g>
		</g>
		<g>
			<g>
				<path fill="#FF8369" d="M305.521,261.225c-0.673,0-1.349-0.055-2.024-0.173c-4.812-0.838-9.044-4.648-10.533-9.483
					c-1.37-4.449-0.498-9.635,2.333-13.873c1.262-1.889,2.74-3.257,4.336-4.028c-2.356-1.628-3.993-4.433-4.306-7.529
					c-0.392-3.88,1.173-7.404,2.555-9.676c5.24-8.606,16.335-13.228,26.37-10.982c0.392,0.086,0.637,0.465,0.546,0.845
					c-0.091,0.379-0.478,0.616-0.872,0.529c-9.43-2.106-19.865,2.235-24.789,10.325c-1.274,2.091-2.716,5.32-2.361,8.823
					c0.322,3.183,2.229,5.997,4.855,7.167c0.282,0.125,0.451,0.41,0.421,0.709c-0.03,0.3-0.252,0.548-0.551,0.617
					c-2.288,0.538-3.972,2.455-4.982,3.968c-2.6,3.894-3.408,8.643-2.159,12.701c1.336,4.337,5.111,7.752,9.396,8.498
					c4.488,0.777,9.319-1.617,11.019-5.453c0.159-0.358,0.58-0.522,0.957-0.369c0.368,0.154,0.54,0.57,0.381,0.928
					C314.381,258.672,310.047,261.225,305.521,261.225z"/>
			</g>
		</g>
	</g>
	<g>
		<g>
			<g>
				<path fill="#F2BF27" d="M536.983,508.792c-7.57,0.621-15.581,2.033-21.144,7.055c-28.688,25.894,28.449,56.263,47.31,66.107
					c17.87,9.326,35.193,17.693,55.506,19.967c22.222,2.488,44.739,2.501,66.964,0.028c10.743-1.196,30.489-5.934,34.012-17.458
					c3.495-11.432-2.442-24.03-11.647-31.935s-21.146-12.03-32.867-15.635c-24.188-7.438-48.789-13.245-73.69-17.932
					c-9.407-1.771-16.696-5.947-25.682-8.355C563.671,507.398,549.341,507.778,536.983,508.792z"/>
			</g>
		</g>
		<g>
			<g>
				<path fill="#2D3540" d="M676.04,591.689c-43.61,9.063-89.012-4.825-128.661-24.562c-10.608-5.281-21.259-11.354-29.501-19.823
					c-5.704-5.863-7.404-11.603-9.8-17.894c-2.887,22.134,39.362,44.475,55.071,52.638c17.871,9.287,35.193,17.616,55.506,19.881
					c22.222,2.477,44.74,2.49,66.963,0.027c10.744-1.19,30.49-5.908,34.013-17.383c1.948-6.348,0.959-13.054-1.889-19.112
					C710.192,579.83,692.795,588.207,676.04,591.689z"/>
			</g>
			<g>
				<path fill="#2D3540" d="M601.426,519.354c-9.407-1.763-16.696-5.921-25.682-8.319c-9.367-2.5-20.084-2.823-30.193-2.375
					c0.498,0.987,1.195,2.087,2.032,3.293c3.747,5.401,7.964,10.493,12.592,15.206c4.276,4.354,8.901,8.384,13.83,12.036
					c4.753,3.522,8.367,6.18,13.895,8.611c33.463,14.717,73.087,23.67,108.835,12.801c3.52-1.07,7.055-2.146,10.382-3.691
					c1.128-0.524,2.257-1.143,3.282-1.87c-0.779-0.789-1.578-1.555-2.415-2.271c-9.206-7.871-21.146-11.978-32.867-15.567
					C650.928,529.802,626.326,524.02,601.426,519.354z"/>
			</g>
		</g>
		<g>
			<g>
				<ellipse fill="#9AD1D1" cx="689.199" cy="319.248" rx="242.88" ry="235.521"/>
			</g>
		</g>
		<g>
			<g>
				<path fill="#03A696" d="M863.424,155.129c-4.526,2.136-8.944,3.745-12.679,3.468c-9.415-0.7-19.308-5.272-27.82-1.309
					c-3.632,1.691-6.37,4.723-9.427,7.268c-9.14,7.61-21.876,10.98-33.735,8.926c-24.477-4.239-41.024-28.977-65.511-33.165
					c-10.31-1.763-22.866,1.808-26.363,11.377c-3.014,8.248,2.134,17.59,9.518,22.622c7.383,5.032,16.523,6.818,25.311,8.81
					c6.627,1.502,14.938,5.845,13.09,12.197c-1.099,3.779-5.539,5.676-9.573,6.012c-17.884,1.489-31.07-16.657-48.537-20.66
					c-10.698-2.452-22.109,0.763-31.438,6.403c-9.329,5.64-16.939,13.534-24.434,21.333c-5.934,6.176-12.307,13.649-10.93,21.984
					c1.077,6.521,7.001,11.599,13.564,13.366c6.562,1.767,13.61,0.721,20.101-1.278c4.207-1.295,8.595-3.006,12.895-2.042
					c1.671,0.374,3.217,1.138,4.744,1.894c10.206,5.055,20.413,10.11,30.62,15.164c-4.035,7.19-14.544,7.599-22.756,5.708
					c-8.213-1.892-16.989-5.093-24.76-1.895c-3.355,1.381-6.125,3.845-9.412,5.371c-5.101,2.368-11.02,2.305-16.448,3.846
					c-13.296,3.774-21.719,16.476-26.566,29.06c-3.48,9.035-5.7,19.298-1.797,28.169c4.61,10.479,16.19,15.972,26.134,22.039
					c18.554,11.319,33.956,27.445,44.175,46.249c2.529,4.653,4.801,9.89,3.667,15.033c-0.854,3.871-3.519,7.094-6.103,10.159
					c-5.81,6.887-11.618,13.775-17.428,20.663c-6.012,7.128-12.195,14.585-14.419,23.537s0.781,19.842,9.29,23.928
					c7.018,3.37,15.389,1.322,22.908-0.801c34.927-9.864,71.451-21.092,96.352-46.81c30.254-31.247,36.999-79.445,24.351-120.514
					c-1.325-4.303-2.856-8.811-1.835-13.191c1.021-4.38,5.785-8.281,10.118-6.698c2.818,1.03,4.403,3.875,5.665,6.528
					c5.206,10.95,9.101,22.486,11.582,34.301c0.847,4.035,1.95,8.673,5.745,10.519c6.675,3.246,13.583-5.137,21.051-5.128
					c9.216,0.011,12.776,11.496,13.62,20.396c0.921,9.722,1.842,19.445,2.763,29.167c0.177,1.866,0.385,3.82,1.462,5.376
					c3.119,4.504,10.376,2.501,15.063-0.463c9.217-5.829,17.103-13.626,22.936-22.674c2.956-4.588,5.479-9.595,9.681-13.155
					c3.782-3.204,8.598-4.956,13.143-7.029c7.06-3.221,13.59-7.421,19.465-12.368c2.759-22.762,2.12-46.3-2.362-70.021
					C919.093,229.118,895.855,187.444,863.424,155.129z"/>
			</g>
			<g>
				<path fill="#03A696" d="M464.228,392.832c0.84-19.566,12.765-37.116,16.1-56.43c5.384-31.184-11.946-61.312-18.904-92.202
					c-0.329-1.458-0.626-2.939-0.888-4.428c-14.012,37.795-18.241,79.57-10.24,121.921c3.427,18.132,8.912,35.394,16.174,51.605
					C465.039,406.538,463.933,399.707,464.228,392.832z"/>
			</g>
			<g>
				<path fill="#03A696" d="M594.608,136.564c7.621-6.273,22.113-27.939,19.692-41.376c-45.428,14.219-84.168,40.685-112.967,74.804
					c2.703-0.937,5.492-1.698,8.248-2.428c10.58-2.803,21.159-5.605,31.738-8.408C560.179,154.159,579.7,148.833,594.608,136.564z"
					/>
			</g>
		</g>
		<g>
			<g>
				<path fill="none" d="M731.707,146.229c-5.925,9.219-12.636,20.054-18.787,31.253c-8.589,15.64-16.535,31.999-24.013,49.417
					c10.023,3.268,20.147,6.166,30.127,8.998c7.725,2.192,15.432,4.333,23.131,6.363c5.765-28.591,10.071-57.902,11.937-87.553
					C746.533,152.297,739.076,149.464,731.707,146.229z"/>
			</g>
			<g>
				<path fill="none" d="M789.768,162.912c-11.69-1.709-23.078-4.294-34.225-7.762c-1.885,29.631-6.201,58.916-11.964,87.478
					c18.765,4.917,37.48,9.163,56.252,11.896C801.875,222.588,798.559,192.381,789.768,162.912z"/>
			</g>
			<g>
				<path fill="none" d="M502.974,396.166c0.33,2.181,0.708,4.316,1.071,6.465c12.787,9.963,28.21,19.342,47.19,28.737
					c1.403,0.695,2.829,1.347,4.24,2.027c-2.496-26.029-1.7-54.735,2.422-90.6c0.948-8.249,2.195-17.994,3.971-28.275
					c-3.03-2.061-6.027-4.177-8.944-6.413c-14.362-11.006-26.953-23.97-37.426-38.532c-1.379-1.917-2.684-3.839-3.952-5.762
					C493.345,308.227,496.789,355.234,502.974,396.166z"/>
			</g>
			<g>
				<path fill="none" d="M835.512,165.286l-2.773,0.066c-2.488,0.068-4.963,0.101-7.423,0.101c-11.63,0-22.934-0.766-33.968-2.301
					c8.708,29.461,11.983,59.658,9.928,91.569c28.824,4.075,57.789,4.535,87.288-1.634c-6.606-28.854-22.008-57.938-46.628-87.997
					C839.732,165.192,837.569,165.242,835.512,165.286z"/>
			</g>
			<g>
				<path fill="none" d="M730.369,145.641c-2.589-1.156-5.172-2.344-7.74-3.603c-5.106-2.502-13.566-6.656-22.221-12.155
					c-29.64,14.969-56.092,35.629-77.779,60.246c8.658,8.231,17.673,15.836,29.49,21.913c11.319,5.822,23.277,10.404,35.404,14.407
					c7.508-17.494,15.487-33.922,24.112-49.629C717.769,165.651,724.456,154.847,730.369,145.641z"/>
			</g>
			<g>
				<path fill="none" d="M623.378,459.765c14.617,4.407,29.451,8.147,44.447,11.163c8.11-15.335,15.581-30.986,21.973-47.048
					c6.942-17.444,12.648-35.425,17.9-52.349c0.158-0.51,0.316-1.025,0.475-1.536c-15.466-3.759-31.49-8.111-48.22-13.112
					c-4.238-1.267-8.498-2.573-12.765-3.918c-7.39,28.826-13.635,57.35-19.37,84.943
					C626.298,445.216,624.807,452.496,623.378,459.765z"/>
			</g>
			<g>
				<path fill="none" d="M686.96,227.755c-12.156-4.015-24.149-8.616-35.523-14.466c-11.955-6.148-21.042-13.803-29.757-22.084
					c-25.196,28.919-43.854,63.191-53.399,100.045c-1.965,7.59-3.531,15.235-4.826,22.626
					c25.213,16.975,54.084,28.188,82.693,37.277c7.745-30.061,16.752-60.444,27.774-90.454
					C678.119,249.27,682.455,238.319,686.96,227.755z"/>
			</g>
			<g>
				<path fill="none" d="M718.624,237.253c-10.029-2.847-20.204-5.76-30.282-9.048c-4.51,10.569-8.849,21.529-13.049,32.969
					c-11.016,29.991-20.017,60.364-27.758,90.417c4.294,1.354,8.58,2.668,12.845,3.943c16.733,5.003,32.749,9.346,48.211,13.105
					c12.08-39.043,24.374-81.157,33.293-124.988C734.142,241.609,726.392,239.458,718.624,237.253z"/>
			</g>
			<g>
				<path fill="none" d="M891.624,271.706c-0.565-5.739-1.488-11.482-2.748-17.233c-15.708,3.286-31.26,4.714-46.711,4.714
					c-13.728,0-27.376-1.137-40.991-3.058c-0.47,6.786-1.153,13.642-2.104,20.593c-4.218,30.847-10.52,67.768-22.709,104.984
					c25.269,3.458,49.192,5.009,72.372,4.695c7.974-0.106,17-0.428,26.457-1.475c4.717-13.906,8.471-29.316,12.044-49.38
					C890.631,316.45,893.811,293.93,891.624,271.706z"/>
			</g>
			<g>
				<path fill="none" d="M699.02,128.993c-8.368-5.448-16.746-12.143-22.32-19.823c-7.007,2.6-13.987,5.575-20.898,8.97
					c-21.217,10.42-41.998,24.509-63.064,42.757c2.759,3.153,5.885,6.313,9.385,9.487c4.514,4.091,8.722,8.235,12.792,12.241
					c2.235,2.201,4.448,4.376,6.676,6.513C643.211,164.616,669.536,144.001,699.02,128.993z"/>
			</g>
			<g>
				<path fill="none" d="M799.731,255.919c-18.839-2.737-37.616-6.975-56.44-11.905c-8.922,43.829-21.208,85.935-33.286,124.971
					c22.774,5.493,44.295,9.652,64.895,12.526c12.207-37.196,18.511-74.127,22.728-104.972
					C798.578,269.578,799.262,262.713,799.731,255.919z"/>
			</g>
			<g>
				<path fill="none" d="M756.689,100.809l-0.555,0.794c-0.042,0.062-0.085,0.123-0.127,0.184c0.068,0.103,0.11,0.222,0.116,0.351
					c0.78,17.257,0.542,34.471-0.5,51.574c10.976,3.434,22.185,6,33.687,7.717c-0.612-2.006-1.233-4.011-1.895-6.01
					C780.034,133.129,769.7,114.763,756.689,100.809z"/>
			</g>
			<g>
				<path fill="none" d="M725.94,479.04c29.716,2.388,59.66,2.135,89.307-0.818c26.672-26.046,47.081-57.078,58.831-90.087
					c0.205-0.575,0.405-1.157,0.605-1.738c-9.267,0.995-18.105,1.313-25.931,1.416c-1.939,0.026-3.893,0.039-5.843,0.039
					c-21.491,0.001-43.669-1.587-66.99-4.788c-6.155,18.574-13.764,37.202-23.374,55.171
					C744.677,452.946,735.749,466.587,725.94,479.04z"/>
			</g>
			<g>
				<path fill="none" d="M754.972,111.203c-0.114,0.11-0.26,0.192-0.432,0.208c-1.489,0.144-2.965,0.339-4.429,0.566
					c-1.457,2.909-2.799,5.843-4.116,8.733c-2.684,5.89-5.46,11.979-9.131,17.578c-1.38,2.104-2.858,4.377-4.376,6.731
					c7.142,3.127,14.369,5.871,21.699,8.219C755.027,139.286,755.327,125.262,754.972,111.203z"/>
			</g>
			<g>
				<path fill="none" d="M557.013,434.132c20.957,10.007,42.689,18.43,64.964,25.22c1.423-7.225,2.905-14.461,4.415-21.724
					c5.744-27.642,12-56.218,19.407-85.099c-28.54-9.063-57.358-20.229-82.609-37.11c-1.709,10.004-2.921,19.483-3.845,27.533
					C555.187,379.119,554.422,407.969,557.013,434.132z"/>
			</g>
			<g>
				<path fill="none" d="M754.94,110.17c-0.06-2.151-0.117-4.303-0.207-6.456c-1.396,2.192-2.636,4.451-3.815,6.725
					c1.153-0.164,2.309-0.32,3.478-0.433C754.608,109.989,754.798,110.053,754.94,110.17z"/>
			</g>
			<g>
				<path fill="none" d="M744.664,120.14c1.184-2.598,2.388-5.23,3.678-7.852c-8.848,1.561-17.09,4.386-23.594,6.847
					c-7.804,2.951-15.426,6.307-22.862,10.001c8.357,5.246,16.472,9.227,21.398,11.642c2.609,1.279,5.233,2.485,7.863,3.657
					c1.559-2.418,3.074-4.748,4.488-6.904C739.248,132.021,742.002,125.98,744.664,120.14z"/>
			</g>
			<g>
				<path fill="none" d="M691.154,424.387c-6.362,15.991-13.787,31.569-21.845,46.829c18.126,3.587,36.476,6.132,54.917,7.678
					c9.979-12.578,19.047-26.392,27.028-41.31c9.531-17.818,17.088-36.295,23.207-54.724c-20.603-2.883-42.107-7.022-64.877-12.515
					c-0.164,0.53-0.329,1.065-0.493,1.594C703.833,388.887,698.115,406.899,691.154,424.387z"/>
			</g>
			<g>
				<path fill="none" d="M620.641,190.215c-2.258-2.165-4.498-4.368-6.763-6.598c-4.061-3.997-8.259-8.13-12.749-12.203
					c-3.531-3.201-6.687-6.391-9.478-9.576c-5.463,4.768-10.946,9.801-16.462,15.141c-25.075,24.271-43.464,47.53-56.215,71.103
					c-2.523,4.666-4.77,9.373-6.771,14.111c1.428,2.195,2.915,4.387,4.488,6.575c10.391,14.45,22.884,27.313,37.134,38.235
					c2.712,2.078,5.494,4.051,8.307,5.977c1.279-7.218,2.82-14.673,4.738-22.074C576.477,253.808,595.266,219.314,620.641,190.215z"
					/>
			</g>
			<g>
				<path fill="#FFFFFF" d="M555.474,433.396c0.513,0.247,1.025,0.491,1.539,0.736c-2.591-26.162-1.826-55.013,2.331-91.18
					c0.924-8.05,2.136-17.529,3.845-27.533c-0.443-0.296-0.881-0.598-1.322-0.898c-1.777,10.281-3.024,20.026-3.971,28.275
					C553.774,378.661,552.978,407.367,555.474,433.396z"/>
			</g>
			<g>
				<path fill="#FFFFFF" d="M724.748,119.135c6.504-2.461,14.746-5.286,23.594-6.847c0.258-0.524,0.518-1.048,0.784-1.572
					c-9.364,1.536-18.082,4.522-24.906,7.103c-8.107,3.065-16.015,6.567-23.725,10.429c0.464,0.299,0.929,0.597,1.392,0.888
					C709.322,125.441,716.943,122.086,724.748,119.135z"/>
			</g>
			<g>
				<path fill="#FFFFFF" d="M700.408,129.884c-0.462-0.294-0.925-0.589-1.388-0.89c-29.484,15.008-55.808,35.623-77.429,60.146
					c0.346,0.331,0.693,0.661,1.039,0.991C644.316,165.512,670.768,144.852,700.408,129.884z"/>
			</g>
			<g>
				<path fill="#FFFFFF" d="M754.972,111.203c-0.008-0.344-0.023-0.688-0.032-1.033c-0.142-0.117-0.332-0.181-0.544-0.163
					c-1.168,0.113-2.324,0.269-3.478,0.433c-0.266,0.513-0.549,1.022-0.807,1.537c1.464-0.227,2.94-0.422,4.429-0.566
					C754.712,111.394,754.858,111.312,754.972,111.203z"/>
			</g>
			<g>
				<path fill="#FFFFFF" d="M621.679,191.205c-0.347-0.329-0.693-0.659-1.039-0.99c-25.375,29.1-44.164,63.594-53.771,100.69
					c-1.918,7.402-3.459,14.856-4.738,22.074c0.44,0.3,0.88,0.6,1.322,0.897c1.295-7.391,2.861-15.036,4.826-22.626
					C577.825,254.396,596.483,220.124,621.679,191.205z"/>
			</g>
			<g>
				<path fill="#FFFFFF" d="M557.527,449.816c4.98,31.925,15.83,60.623,31.631,84.05c0.836,0.367,1.668,0.743,2.508,1.101
					c-16.383-23.593-27.617-52.777-32.698-85.36c-0.709-4.542-1.294-9.151-1.785-13.834c-0.514-0.243-1.026-0.487-1.538-0.732
					C556.153,440.048,556.771,444.97,557.527,449.816z"/>
			</g>
			<g>
				<path fill="#FFFFFF" d="M753.361,97.126c0.411,0.039,0.749-0.266,0.775-0.656c0.028-0.388-0.275-0.724-0.677-0.752
					c-24.643-1.645-50.612,2.402-76.192,11.734c0.276,0.402,0.552,0.803,0.844,1.199C703.39,99.474,729.033,95.498,753.361,97.126z"
					/>
			</g>
			<g>
				<path fill="#FFFFFF" d="M502.974,396.166c-6.185-40.932-9.628-87.939,8.571-132.353c-0.322-0.489-0.653-0.978-0.967-1.467
					c-18.765,44.989-15.303,92.608-9.044,134.025c0.252,1.665,0.547,3.287,0.817,4.933c0.556,0.444,1.128,0.884,1.694,1.326
					C503.682,400.482,503.304,398.348,502.974,396.166z"/>
			</g>
			<g>
				<path fill="#FFFFFF" d="M655.801,118.141c6.911-3.395,13.891-6.37,20.898-8.97c-0.288-0.397-0.565-0.799-0.838-1.201
					c-6.948,2.589-13.867,5.545-20.718,8.91c-21.315,10.468-42.182,24.612-63.325,42.921c0.31,0.366,0.599,0.731,0.918,1.096
					C613.803,142.65,634.584,128.56,655.801,118.141z"/>
			</g>
			<g>
				<path fill="#FFFFFF" d="M538.283,503.773c1.043,0.802,2.089,1.602,3.146,2.387c-17.778-28.152-30.183-62.119-37.041-101.459
					c-0.569-0.436-1.133-0.872-1.691-1.309C509.286,442.124,521.207,475.715,538.283,503.773z"/>
			</g>
			<g>
				<path fill="#FFFFFF" d="M518.975,248.081c12.751-23.573,31.14-46.832,56.215-71.103c5.516-5.34,10.999-10.373,16.462-15.141
					c-0.32-0.365-0.609-0.73-0.92-1.096c-5.499,4.797-11.018,9.863-16.569,15.237c-25.183,24.376-43.655,47.745-56.476,71.448
					c-2.38,4.401-4.51,8.839-6.428,13.303c0.31,0.487,0.629,0.974,0.946,1.462C514.205,257.454,516.451,252.747,518.975,248.081z"/>
			</g>
			<g>
				<path fill="#FFFFFF" d="M754.101,154.707c-1.866,29.651-6.172,58.962-11.937,87.553c0.471,0.124,0.942,0.244,1.414,0.368
					c5.763-28.562,10.08-57.847,11.964-87.478C755.062,155,754.58,154.859,754.101,154.707z"/>
			</g>
			<g>
				<path fill="#FFFFFF" d="M621.977,459.352c0.465,0.142,0.934,0.273,1.401,0.413c1.43-7.269,2.92-14.55,4.439-21.858
					c5.735-27.594,11.979-56.117,19.37-84.943c-0.463-0.146-0.925-0.289-1.388-0.436c-7.406,28.882-13.662,57.457-19.407,85.099
					C624.882,444.891,623.4,452.127,621.977,459.352z"/>
			</g>
			<g>
				<path fill="#FFFFFF" d="M744.664,120.14c-2.663,5.84-5.416,11.881-9.029,17.391c-1.414,2.156-2.929,4.487-4.488,6.904
					c0.445,0.198,0.894,0.388,1.34,0.583c1.518-2.354,2.996-4.627,4.376-6.731c3.671-5.6,6.447-11.688,9.131-17.578
					c1.317-2.89,2.659-5.824,4.116-8.733c0.259-0.515,0.541-1.024,0.807-1.537c1.179-2.275,2.419-4.533,3.815-6.725
					c0.09,2.153,0.147,4.304,0.207,6.456c0.01,0.344,0.024,0.689,0.032,1.033c0.354,14.06,0.055,28.084-0.786,42.035
					c0.48,0.154,0.955,0.323,1.436,0.473c1.042-17.102,1.28-34.317,0.5-51.574c-0.006-0.129-0.047-0.248-0.116-0.351
					c0.042-0.061,0.085-0.121,0.127-0.184l0.555-0.794c13.01,13.954,23.345,32.321,30.725,54.609c0.662,2,1.283,4.004,1.895,6.01
					c0.529,0.079,1.062,0.146,1.592,0.221c-0.672-2.224-1.366-4.445-2.1-6.662c-7.562-22.838-18.215-41.611-31.659-55.794
					c-0.148-0.156-0.373-0.243-0.589-0.226c-0.222,0.017-0.425,0.129-0.55,0.309l-1.076,1.538c-2.212,3.199-4.091,6.534-5.801,9.902
					c-0.265,0.523-0.526,1.047-0.784,1.572C747.052,114.91,745.848,117.542,744.664,120.14z"/>
			</g>
			<g>
				<path fill="#FFFFFF" d="M689.797,423.88c-6.391,16.063-13.862,31.714-21.973,47.048c0.495,0.099,0.99,0.189,1.485,0.288
					c8.057-15.26,15.483-30.838,21.845-46.829c6.961-17.488,12.679-35.5,17.938-52.448c0.164-0.529,0.329-1.065,0.493-1.594
					c-0.467-0.113-0.945-0.236-1.413-0.35c-0.158,0.511-0.317,1.027-0.475,1.536C702.445,388.455,696.739,406.436,689.797,423.88z"
					/>
			</g>
			<g>
				<path fill="#FFFFFF" d="M724.226,478.894c0.571,0.048,1.143,0.1,1.714,0.146c9.809-12.453,18.737-26.094,26.606-40.806
					c9.61-17.968,17.22-36.596,23.374-55.171c-0.485-0.066-0.973-0.136-1.459-0.204c-6.12,18.43-13.677,36.906-23.207,54.724
					C743.273,452.502,734.205,466.316,724.226,478.894z"/>
			</g>
			<g>
				<path fill="#FFFFFF" d="M791.347,163.153c-0.529-0.074-1.052-0.164-1.58-0.241c8.792,29.469,12.107,59.676,10.062,91.612
					c0.481,0.07,0.964,0.13,1.445,0.198C803.33,222.811,800.056,192.614,791.347,163.153z"/>
			</g>
			<g>
				<path fill="#FFFFFF" d="M610.391,542.053c0.478,0.159,0.955,0.318,1.434,0.474c1.592-27.439,5.989-54.328,11.284-81.381
					c-0.466-0.141-0.932-0.284-1.398-0.426C616.417,487.748,612.009,514.617,610.391,542.053z"/>
			</g>
			<g>
				<path fill="#FFFFFF" d="M623.301,545.974c0.484,0.133,0.966,0.275,1.451,0.405c15.156-23.976,30.388-48.468,43.868-73.85
					c-0.493-0.098-0.981-0.215-1.473-0.314C653.669,497.554,638.444,522.022,623.301,545.974z"/>
			</g>
			<g>
				<path fill="#FFFFFF" d="M688.342,228.205c-0.461-0.151-0.922-0.298-1.383-0.45c-4.505,10.564-8.841,21.515-13.039,32.944
					c-11.021,30.01-20.029,60.393-27.774,90.454c0.463,0.147,0.925,0.291,1.388,0.437c7.741-30.053,16.742-60.426,27.758-90.417
					C679.494,249.734,683.833,238.774,688.342,228.205z"/>
			</g>
			<g>
				<path fill="#FFFFFF" d="M632.694,548.351c0.808,0.188,1.617,0.374,2.429,0.555c33.932-13.529,64.7-37.136,89.757-68.515
					c-0.574-0.047-1.148-0.098-1.722-0.147C697.899,511.648,666.875,535.145,632.694,548.351z"/>
			</g>
			<g>
				<path fill="#FFFFFF" d="M731.707,146.229c-0.446-0.195-0.893-0.388-1.338-0.587c-5.913,9.205-12.6,20.009-18.734,31.179
					c-8.625,15.707-16.605,32.135-24.112,49.629c0.461,0.152,0.923,0.3,1.384,0.45c7.477-17.418,15.424-33.777,24.013-49.417
					C719.071,166.283,725.782,155.448,731.707,146.229z"/>
			</g>
			<g>
				<path fill="#FFFFFF" d="M801.175,256.129c-0.481-0.068-0.963-0.141-1.444-0.21c-0.468,6.794-1.152,13.659-2.104,20.62
					c-4.217,30.845-10.521,67.777-22.728,104.972c0.49,0.068,0.974,0.128,1.463,0.195c12.189-37.216,18.491-74.137,22.709-104.984
					C800.021,269.771,800.705,262.915,801.175,256.129z"/>
			</g>
			<g>
				<path fill="#FFFFFF" d="M741.884,243.65c-8.919,43.831-21.213,85.945-33.293,124.988c0.469,0.114,0.945,0.235,1.413,0.348
					c12.078-39.036,24.363-81.142,33.286-124.971C742.821,243.891,742.353,243.774,741.884,243.65z"/>
			</g>
			<g>
				<path fill="#FFFFFF" d="M888.563,253.087c0.473-0.099,0.947-0.206,1.419-0.308c-6.596-28.813-21.878-57.83-46.265-87.782
					c-0.597,0.036-1.19,0.067-1.782,0.094C866.556,195.149,881.958,224.234,888.563,253.087z"/>
			</g>
			<g>
				<path fill="#FFFFFF" d="M891.624,271.706c2.187,22.224-0.993,44.744-4.389,63.842c-3.572,20.064-7.327,35.474-12.044,49.38
					c0.528-0.058,1.063-0.13,1.594-0.193c4.641-13.808,8.352-29.115,11.883-48.947c3.415-19.188,6.609-41.824,4.404-64.213
					c-0.57-5.799-1.503-11.599-2.776-17.407c-0.474,0.102-0.947,0.208-1.419,0.306C890.136,260.223,891.059,265.966,891.624,271.706
					z"/>
			</g>
			<g>
				<path fill="#FFFFFF" d="M784.524,504c-32.914,23.585-72.261,40.65-114.913,50.043c1.672,0.13,3.347,0.243,5.026,0.339
					c41.039-9.636,78.888-26.414,110.751-49.246c10.901-7.811,21.109-16.392,30.554-25.583c-0.757,0.076-1.514,0.153-2.272,0.226
					C804.628,488.461,794.886,496.576,784.524,504z"/>
			</g>
			<g>
				<path fill="#FFFFFF" d="M820.678,139.177c-14.947-15.424-33.289-32.593-55.987-42.982c-2.31-1.057-4.044-1.062-5.153-0.018
					c-0.538,0.507-0.675,1.257-0.362,2.005c0.303,0.731,1.092,1.509,1.956,1.511c0.002,0,0.004,0,0.004,0
					c0.559,0,1.033-0.329,1.266-0.882c0.154-0.362,0.017-0.77-0.354-0.919c-0.377-0.145-0.756,0.029-0.908,0.39
					c-0.121-0.011-0.487-0.274-0.631-0.667c-0.104-0.287,0.002-0.386,0.042-0.423c0.631-0.592,1.814-0.498,3.519,0.279
					c22.479,10.288,40.693,27.344,55.548,42.673c7.69,7.936,14.741,15.791,21.187,23.582c0.597-0.023,1.197-0.051,1.799-0.082
					C835.955,155.562,828.657,147.412,820.678,139.177z"/>
			</g>
			<g>
				<path fill="#FFFFFF" d="M874.078,388.135c-11.75,33.008-32.159,64.04-58.831,90.087c0.751-0.075,1.503-0.146,2.253-0.224
					c26.222-25.946,46.313-56.704,57.954-89.403c0.281-0.787,0.555-1.58,0.828-2.377c-0.534,0.062-1.067,0.123-1.599,0.18
					C874.483,386.978,874.283,387.56,874.078,388.135z"/>
			</g>
			<g>
				<path fill="#FFFFFF" d="M699.02,128.993c0.463,0.302,0.926,0.596,1.388,0.89c8.655,5.499,17.115,9.653,22.221,12.155
					c2.568,1.259,5.151,2.447,7.74,3.603c0.445,0.199,0.892,0.392,1.338,0.587c7.369,3.235,14.826,6.068,22.394,8.478
					c0.479,0.153,0.961,0.293,1.441,0.442c11.147,3.468,22.536,6.053,34.225,7.762c0.528,0.077,1.051,0.167,1.58,0.241
					c11.035,1.535,22.339,2.301,33.968,2.301c2.46,0,4.935-0.033,7.423-0.101l2.773-0.066c2.057-0.045,4.221-0.095,6.424-0.196
					c0.592-0.027,1.185-0.058,1.782-0.094c7.921-0.477,16.166-1.816,21.935-6.371c0.218-0.172,0.434-0.391,0.651-0.578
					c-0.333-0.343-0.671-0.678-1.005-1.019c-0.189,0.162-0.376,0.352-0.565,0.502c-5.695,4.497-14.127,5.7-22.13,6.113
					c-0.603,0.031-1.203,0.059-1.799,0.082c-1.822,0.071-3.611,0.111-5.324,0.149l-2.782,0.066
					c-14.403,0.394-28.3-0.373-41.796-2.292c-0.53-0.075-1.063-0.142-1.592-0.221c-11.502-1.717-22.711-4.283-33.687-7.717
					c-0.48-0.15-0.955-0.319-1.436-0.473c-7.33-2.348-14.557-5.092-21.699-8.219c-0.446-0.195-0.895-0.385-1.34-0.583
					c-2.63-1.172-5.254-2.379-7.863-3.657c-4.927-2.415-13.042-6.396-21.398-11.642c-0.463-0.291-0.928-0.589-1.392-0.888
					c-8.364-5.38-16.795-12.007-22.382-19.597c-0.292-0.396-0.569-0.798-0.844-1.199c-4.818-7.014-7.111-14.812-4.692-23.176
					c-0.515,0.035-1.029,0.063-1.544,0.101c-2.318,8.543,0.004,16.474,4.829,23.593c0.273,0.403,0.55,0.804,0.838,1.201
					C682.274,116.85,690.652,123.545,699.02,128.993z"/>
			</g>
			<g>
				<path fill="#FFFFFF" d="M601.129,171.414c4.49,4.072,8.688,8.206,12.749,12.203c2.265,2.23,4.505,4.433,6.763,6.598
					c0.346,0.331,0.692,0.661,1.039,0.99c8.715,8.281,17.802,15.936,29.757,22.084c11.374,5.851,23.368,10.451,35.523,14.466
					c0.461,0.152,0.922,0.299,1.383,0.45c10.078,3.288,20.253,6.202,30.282,9.048c7.767,2.204,15.518,4.356,23.26,6.397
					c0.469,0.124,0.937,0.241,1.406,0.364c18.825,4.93,37.601,9.168,56.44,11.905c0.481,0.07,0.963,0.142,1.444,0.21
					c13.615,1.921,27.263,3.058,40.991,3.058c15.45,0,31.002-1.428,46.711-4.714c0.473-0.099,0.946-0.204,1.419-0.306
					c5.019-1.086,10.054-2.348,15.108-3.832c4.716-1.386,9.682-3.064,14.288-5.373c-0.154-0.449-0.304-0.9-0.461-1.348
					c-4.568,2.315-9.537,3.984-14.248,5.368c-5.017,1.473-10.016,2.72-15,3.797c-0.473,0.102-0.947,0.21-1.419,0.308
					c-29.499,6.169-58.464,5.709-87.288,1.634c-0.481-0.068-0.964-0.128-1.445-0.198c-18.772-2.733-37.487-6.979-56.252-11.896
					c-0.472-0.124-0.943-0.243-1.414-0.368c-7.699-2.031-15.406-4.171-23.131-6.363c-9.98-2.832-20.104-5.73-30.127-8.998
					c-0.461-0.15-0.924-0.298-1.384-0.45c-12.127-4.002-24.085-8.585-35.404-14.407c-11.816-6.077-20.832-13.682-29.49-21.913
					c-0.346-0.33-0.693-0.659-1.039-0.991c-2.228-2.137-4.44-4.312-6.676-6.513c-4.071-4.006-8.278-8.15-12.792-12.241
					c-3.499-3.174-6.626-6.334-9.385-9.487c-0.319-0.366-0.608-0.731-0.918-1.096c-11.196-13.198-15.956-26.286-14.457-39.727
					c0.458-4.107,1.634-7.962,3.299-11.577c-0.689,0.333-1.371,0.674-2.055,1.013c-1.347,3.279-2.284,6.754-2.691,10.413
					c-1.547,13.855,3.334,27.302,14.817,40.819c0.311,0.365,0.6,0.73,0.92,1.096C594.442,165.023,597.598,168.213,601.129,171.414z"
					/>
			</g>
			<g>
				<path fill="#FFFFFF" d="M912.446,376.234c-11.722,4.6-23.987,7.113-35.662,8.5c-0.531,0.063-1.066,0.135-1.594,0.193
					c-9.457,1.047-18.483,1.369-26.457,1.475c-23.18,0.313-47.103-1.238-72.372-4.695c-0.489-0.067-0.973-0.127-1.463-0.195
					c-20.6-2.874-42.12-7.033-64.895-12.526c-0.468-0.113-0.944-0.234-1.413-0.348c-15.463-3.759-31.478-8.101-48.211-13.105
					c-4.264-1.275-8.551-2.589-12.845-3.943c-0.463-0.146-0.925-0.29-1.388-0.437c-28.61-9.09-57.481-20.302-82.693-37.277
					c-0.442-0.297-0.882-0.596-1.322-0.897c-2.812-1.926-5.595-3.899-8.307-5.977c-14.25-10.922-26.743-23.784-37.134-38.235
					c-1.573-2.188-3.06-4.38-4.488-6.575c-0.316-0.488-0.636-0.975-0.946-1.462c-11.099-17.472-17.594-35.141-19.316-52.639
					c-0.971-9.859-0.309-19.552,1.82-28.657c-0.708,0.931-1.409,1.867-2.104,2.809c-1.62,8.33-2.04,17.094-1.165,25.983
					c1.772,18.007,8.524,36.179,20.083,54.121c0.315,0.489,0.645,0.978,0.967,1.467c1.269,1.923,2.574,3.845,3.952,5.762
					c10.473,14.562,23.064,27.526,37.426,38.532c2.918,2.236,5.914,4.352,8.944,6.413c0.441,0.3,0.879,0.602,1.322,0.898
					c25.251,16.881,54.068,28.047,82.609,37.11c0.463,0.147,0.925,0.289,1.388,0.436c4.267,1.345,8.527,2.651,12.765,3.918
					c16.73,5.002,32.754,9.353,48.22,13.112c0.468,0.114,0.946,0.238,1.413,0.35c22.77,5.493,44.273,9.632,64.877,12.515
					c0.486,0.068,0.974,0.138,1.459,0.204c23.321,3.201,45.499,4.789,66.99,4.788c1.95,0,3.904-0.013,5.843-0.039
					c7.826-0.103,16.663-0.421,25.931-1.416c0.532-0.057,1.065-0.118,1.599-0.18c11.983-1.382,24.624-3.932,36.71-8.676
					c4.621-1.814,9.006-3.933,13.145-6.291c0.148-0.631,0.292-1.262,0.435-1.894C922.155,371.956,917.44,374.274,912.446,376.234z"
					/>
			</g>
			<g>
				<path fill="#FFFFFF" d="M725.94,479.04c-0.571-0.046-1.143-0.098-1.714-0.146c-18.441-1.546-36.79-4.091-54.917-7.678
					c-0.495-0.098-0.99-0.188-1.485-0.288c-14.996-3.016-29.83-6.756-44.447-11.163c-0.466-0.14-0.935-0.271-1.401-0.413
					c-22.275-6.791-44.007-15.213-64.964-25.22c-0.514-0.245-1.026-0.489-1.539-0.736c-1.411-0.68-2.836-1.332-4.24-2.027
					c-18.98-9.395-34.403-18.774-47.19-28.737c-0.567-0.442-1.138-0.882-1.694-1.326c-5.773-4.607-11.001-9.343-15.755-14.269
					c-22.206-23.011-35.99-52.91-39.753-83.989c-0.172,2.44-0.294,4.889-0.387,7.343c4.931,28.773,18.376,56.157,39.079,77.609
					c5.142,5.329,10.836,10.433,17.162,15.393c0.558,0.437,1.123,0.873,1.691,1.309c12.615,9.664,27.731,18.79,46.184,27.924
					c1.678,0.831,3.384,1.605,5.072,2.415c0.512,0.246,1.024,0.489,1.538,0.732c20.826,9.895,42.413,18.214,64.529,24.947
					c0.466,0.142,0.931,0.286,1.398,0.426c14.485,4.362,29.181,8.069,44.038,11.069c0.492,0.099,0.98,0.216,1.473,0.314
					c18.003,3.578,36.224,6.145,54.539,7.715c0.574,0.049,1.148,0.1,1.722,0.147c13.671,1.124,27.391,1.697,41.111,1.697
					c15.922,0,31.84-0.787,47.679-2.308c0.758-0.073,1.515-0.149,2.272-0.226c20.23-2.038,40.319-5.304,60.098-9.841
					c0.509-0.595,1.015-1.191,1.517-1.79c-19.759,4.616-39.835,7.968-60.056,10.076c-0.75,0.079-1.502,0.149-2.253,0.224
					C785.6,481.175,755.656,481.428,725.94,479.04z"/>
			</g>
		</g>
		<g>
			<path fill="#2D3540" d="M896.818,294.146c-4.088-39.342-7.896-77.962-32.915-111.141c-13.427-17.807-30.026-33.134-47.194-47.607
				c-6.837-5.764-13.814-11.433-21.548-16.006c-7.938-4.693-27.07-15.185-36.73-11.392c-11.635,4.568,7.991,9.755,11.614,12.082
				c26.952,17.312,46.59,38.9,65.362,63.978c13.37,17.863,19.915,42.37,24.568,63.721c6.552,30.065,8.043,61.138,5.179,91.716
				c-2.859,30.528-12.246,57.396-21.146,86.453c-7.092,23.155-26.695,42.37-42.644,60.556c-6.702,7.642-13.426,15.307-21.054,22.084
				c-17.284,15.358-38.596,25.656-59.601,35.751c-7.662,3.683-15.367,7.386-23.38,10.315c11.789-0.397,23.691-1.62,35.64-3.743
				c28.06-4.985,54.093-14.475,77.477-27.536c5.519-5.182,10.885-10.67,16.405-16.34c11.465-11.772,20.3-22.227,29.125-36.183
				c11.069-17.503,19.992-36.251,26.712-55.717C896.07,376.367,901.047,334.841,896.818,294.146z"/>
		</g>
		<g>
			<g>
				<path fill="#F2BF27" d="M743.662,98.612c-0.746,1.682-1.536,3.349-2.388,4.994c-0.3,0.58-0.609,1.198-0.552,1.844
					c0.064,0.734,0.582,1.345,1.077,1.904c0.924,1.045,1.849,2.09,2.773,3.135c0.978,1.105,1.981,2.231,3.282,2.96
					c1.411,0.79,3.062,1.051,4.671,1.298c2.01,0.308,4.02,0.617,6.03,0.925c0.497,0.076,1.038,0.145,1.476-0.095
					c0.36-0.198,0.576-0.567,0.772-0.92c2.373-4.276,3.959-8.687,5.689-13.19c1.788-4.655,3.937-8.991,5.181-13.857
					c2.407-9.411,2.828-19.314,1.075-28.867c-0.398-2.17-0.935-4.392-2.279-6.17c-7.083-9.365-11.5,9.531-13.731,13.807
					C751.298,76.808,748.357,88.025,743.662,98.612z"/>
			</g>
		</g>
		<g>
			<g>
				<path fill="#F2BF27" d="M729.943,553.683c22.354-9.365,43.732-22.744,61.61-35.846c43.198-31.657,72.593-79.501,87.502-130.536
					c19.505-66.749,18.703-140.447-4.95-205.992c-8.378-23.218-18.62-45.965-32.394-66.589
					c-16.9-25.305-39.322-46.289-66.826-59.942c-3.349-1.663-11.487-7.091-9.943,0.813c1.48,7.571,8.979,12.841,14.556,17.476
					c3.883,3.227,7.085,6.988,10.613,10.555c3.105,3.139,6.776,5.729,9.904,8.994c7.792,8.132,16.518,17.363,22.159,27.11
					c56.911,83.73,59.393,197.288,26.563,290.292c-23.111,65.471-83.433,113.379-147.107,139.556
					c-15.075,6.198-32.184,9.314-48.526,7.453c-8.766-0.999-16.191-3.818-24.02-7.571c-5.742-2.753-13.465-5.729-20.229-7.904
					c10.216,27.21,52.158,26.439,75.785,24.241C699.675,564.394,715.026,559.932,729.943,553.683z"/>
			</g>
		</g>
		<g>
			<g>
				<path fill="none" d="M767.502,58.789c-0.178-0.366-0.492-0.774-0.817-1.191C766.912,57.956,767.174,58.346,767.502,58.789z"/>
			</g>
			<g>
				<path fill="#2D3540" d="M779.498,73.067c3.883,3.227,7.085,6.988,10.614,10.555c3.105,3.139,6.776,5.729,9.903,8.994
					c7.792,8.131,16.518,17.362,22.159,27.11c5.019,7.385,9.593,15.014,13.78,22.829c1.558,2.375,3.116,4.751,4.674,7.126
					c-2.725-9.154-6.064-19.01-10.792-27.26c-1.386-2.418-2.886-4.773-4.477-7.064c-3.281-4.726-6.952-9.178-10.845-13.423
					c-7.758-8.458-16.384-16.082-25.001-23.664c-5.498-4.837-11.017-9.652-16.429-14.575c-0.959-0.872-7.615-8.472-7.349-8.785
					c-0.371,0.439-0.2,0.99,0.152,1.571c-0.199,0.237-0.371,0.489-0.502,0.769C767.543,63.944,774.338,68.78,779.498,73.067z
					 M766.685,57.598c0.325,0.417,0.639,0.824,0.817,1.191C767.174,58.346,766.912,57.956,766.685,57.598z"/>
			</g>
		</g>
	</g>
	<g>
		<g>
			<g>
				<path fill="#F3A771" d="M570.177,585.324c0,0-10.377,6.774-28.264,1.514c-17.887-5.26-34.756-24.012-37.233-29.297
					c-2.476-5.285,10.014-5.301,10.014-5.301s19.611,18.574,27.409,22.211S570.177,585.324,570.177,585.324z"/>
			</g>
		</g>
		<g>
			<g>
				<path fill="#F3A771" d="M522.3,561.474c0,0,8.636-1.745,13.026,0.488c7.472,3.801,11.993,1.151,14.36,1.764
					c2.367,0.613-1.68,6.462-4.991,6.239c-3.311-0.224-7.518-2.23-7.872,2.074S522.3,561.474,522.3,561.474z"/>
			</g>
		</g>
		<g>
			<g>
				<path fill="#F3A771" d="M376.63,340.773c1.281,1.345,43.164,96.658,52.509,106.583c9.345,9.925,91.891,111.546,93.671,115.645
					s-0.89,6.688-7.787,3.452s-82.769-63.001-101.458-91.912c-18.69-28.911-59.629-84.576-64.969-101.405
					C343.255,356.308,365.95,329.554,376.63,340.773z"/>
			</g>
		</g>
	</g>
	<g>
		<g>
			<path fill="#F2BF27" d="M351.652,263.964c-11.273,0-32.929,15.678-32.929,40.706c0,57.535,49.246,120.248,51.916,122.261
				c-2.077-12.082,5.34-29.63,23.733-29.63c12.163,0,15.723,6.041,15.723,6.041c1.483-1.726-24.92-62.138-38.863-79.973
				S351.652,263.964,351.652,263.964z"/>
		</g>
	</g>
	<path d="M398.693,381.826c-11.524-1.419-22.829,1.266-31.032,7.388c-6.054,4.517-10.211,10.867-11.866,17.603
		c0.375,0.573,0.746,1.136,1.113,1.689c1.322-6.925,5.442-13.549,11.64-18.174c7.899-5.896,18.829-8.49,29.959-7.105
		c0.419,0.044,0.764-0.228,0.815-0.61C399.374,382.229,399.092,381.876,398.693,381.826z"/>
</g>
</svg>
